<svg width="60" height="24" viewBox="0 0 60 24" fill="none" xmlns="http://www.w3.org/2000/svg">
<g clip-path="url(#clip0_910_86)">
<path d="M11.0039 3.0942C10.3143 3.90485 9.21112 4.54424 8.10789 4.4529C7.96999 3.3568 8.51011 2.1922 9.14217 1.47288C9.83169 0.639391 11.0383 0.0456708 12.0152 0C12.1301 1.14177 11.6819 2.2607 11.0039 3.0942ZM12.0037 4.66984C10.4063 4.5785 9.03874 5.57184 8.28027 5.57184C7.51031 5.57184 6.34963 4.71551 5.08552 4.73834C3.44217 4.76118 1.91374 5.68601 1.07483 7.1589C-0.648961 10.1047 0.626644 14.4662 2.29297 16.8639C3.1089 18.0514 4.08572 19.353 5.37281 19.3073C6.59096 19.2617 7.07362 18.5195 8.54459 18.5195C10.027 18.5195 10.4523 19.3073 11.7393 19.2845C13.0724 19.2617 13.9113 18.0971 14.7273 16.9096C15.6581 15.5623 16.0373 14.2493 16.0603 14.1808C16.0373 14.1579 13.4861 13.1874 13.4631 10.2645C13.4402 7.82112 15.4742 6.65652 15.5662 6.58801C14.417 4.89819 12.6242 4.71551 12.0037 4.66984ZM21.2317 1.35871V19.1589H24.0127V13.0733H27.8625C31.3791 13.0733 33.8498 10.6755 33.8498 7.20457C33.8498 3.73359 31.425 1.35871 27.9545 1.35871H21.2317ZM24.0127 3.68792H27.219C29.6323 3.68792 31.0113 4.9667 31.0113 7.21598C31.0113 9.46527 29.6323 10.7555 27.2075 10.7555H24.0127V3.68792ZM38.9293 19.2959C40.676 19.2959 42.2964 18.4167 43.0319 17.0238H43.0894V19.1589H45.6635V10.2988C45.6635 7.72978 43.595 6.07421 40.4117 6.07421C37.4583 6.07421 35.2748 7.75262 35.1944 10.059H37.6996C37.9065 8.96289 38.9293 8.24358 40.3313 8.24358C42.0321 8.24358 42.9859 9.0314 42.9859 10.4814V11.4634L39.5154 11.6689C36.2861 11.863 34.5393 13.176 34.5393 15.4596C34.5393 17.7659 36.3436 19.2959 38.9293 19.2959ZM39.6762 17.1836C38.1938 17.1836 37.2514 16.4757 37.2514 15.3911C37.2514 14.2721 38.1593 13.6213 39.8946 13.5186L42.9859 13.3245V14.3292C42.9859 15.9962 41.5609 17.1836 39.6762 17.1836ZM49.0996 24C51.8117 24 53.0873 22.9724 54.2021 19.8554L59.0861 6.24548H56.2591L52.9839 16.7612H52.9264L49.6512 6.24548H46.7438L51.4555 19.2046L51.2027 19.9924C50.7775 21.3283 50.0879 21.8421 48.8583 21.8421C48.64 21.8421 48.2148 21.8192 48.0424 21.7964V23.9315C48.2033 23.9772 48.8928 24 49.0996 24Z" fill="white"/>
</g>
<defs>
<clipPath id="clip0_910_86">
<rect width="58.8387" height="24" fill="white" transform="translate(0.247314)"/>
</clipPath>
</defs>
</svg>
