<svg width="20" height="19" viewBox="0 0 20 19" fill="none" xmlns="http://www.w3.org/2000/svg">
<g id="Group">
<path id="Vector" d="M19 9.51978C19 9.28108 18.9052 9.05216 18.7364 8.88338C18.5676 8.7146 18.3387 8.61977 18.1 8.61977C17.8613 8.61977 17.6324 8.7146 17.4636 8.88338C17.2948 9.05216 17.2 9.28108 17.2 9.51978H19ZM10 2.31978C10.2387 2.31978 10.4676 2.22495 10.6364 2.05617C10.8052 1.88739 10.9 1.65847 10.9 1.41978C10.9 1.18108 10.8052 0.952162 10.6364 0.783379C10.4676 0.614597 10.2387 0.519775 10 0.519775V2.31978ZM16.75 16.7198H3.25V18.5198H16.75V16.7198ZM2.8 16.2698V2.76978H1V16.2698H2.8ZM17.2 9.51978V16.2698H19V9.51978H17.2ZM3.25 2.31978H10V0.519775H3.25V2.31978ZM3.25 16.7198C3.13065 16.7198 3.01619 16.6724 2.9318 16.588C2.84741 16.5036 2.8 16.3891 2.8 16.2698H1C1 16.8665 1.23705 17.4388 1.65901 17.8608C2.08097 18.2827 2.65326 18.5198 3.25 18.5198V16.7198ZM16.75 18.5198C17.3467 18.5198 17.919 18.2827 18.341 17.8608C18.7629 17.4388 19 16.8665 19 16.2698H17.2C17.2 16.3891 17.1526 16.5036 17.0682 16.588C16.9838 16.6724 16.8693 16.7198 16.75 16.7198V18.5198ZM2.8 2.76978C2.8 2.65043 2.84741 2.53597 2.9318 2.45158C3.01619 2.36719 3.13065 2.31978 3.25 2.31978V0.519775C2.65326 0.519775 2.08097 0.756828 1.65901 1.17879C1.23705 1.60074 1 2.17304 1 2.76978H2.8Z" fill="white"/>
<path id="Vector_2" d="M1.90002 14.4698L6.71187 10.0589C6.87406 9.91026 7.08507 9.82616 7.30504 9.82252C7.52501 9.81887 7.7387 9.89592 7.90572 10.0391L13.6 14.9198M11.8 12.6698L13.9479 10.5219C14.1011 10.3687 14.3044 10.2758 14.5206 10.2604C14.7368 10.245 14.9513 10.3082 15.1246 10.4382L18.1 12.6698M15.85 6.8198V1.4198M15.85 1.4198L13.6 3.6698M15.85 1.4198L18.1 3.6698" stroke="white" stroke-width="2" stroke-linecap="round" stroke-linejoin="round"/>
</g>
</svg>
