<svg width="60" height="28" viewBox="0 0 60 28" fill="none" xmlns="http://www.w3.org/2000/svg">
<g clip-path="url(#clip0_910_117)">
<path d="M28.3829 14.4777V21.3123H26.1782V4.40942H31.9105C33.3068 4.40942 34.6297 4.92386 35.6585 5.87924C36.6874 6.76113 37.2018 8.08396 37.2018 9.48029C37.2018 10.8766 36.6874 12.126 35.6585 13.0813C34.6297 14.0367 33.3803 14.5512 31.9105 14.5512L28.3829 14.4777ZM28.3829 6.46717V12.3464H32.0575C32.8659 12.3464 33.6743 12.0525 34.1887 11.4645C35.3646 10.3622 35.3646 8.52491 34.2622 7.42255L34.1887 7.34906C33.6008 6.76113 32.8659 6.39368 32.0575 6.46717H28.3829Z" fill="#5F6368"/>
<path d="M42.2728 9.40686C43.8896 9.40686 45.1389 9.84781 46.0943 10.7297C47.0497 11.6116 47.4906 12.7874 47.4906 14.2573V21.3124H45.4329V19.6956H45.3594C44.4775 21.0184 43.2282 21.6798 41.7583 21.6798C40.509 21.6798 39.4066 21.3124 38.5247 20.5775C37.7163 19.8426 37.2019 18.8137 37.2019 17.7113C37.2019 16.5355 37.6428 15.5801 38.5247 14.8452C39.4066 14.1103 40.656 13.8163 42.1258 13.8163C43.4486 13.8163 44.4775 14.0368 45.2859 14.5512V14.0368C45.2859 13.3019 44.9919 12.567 44.404 12.126C43.8161 11.6116 43.0812 11.3176 42.2728 11.3176C41.0234 11.3176 40.068 11.8321 39.4066 12.8609L37.4959 11.6851C38.6717 10.1418 40.215 9.40686 42.2728 9.40686ZM39.4801 17.7848C39.4801 18.3727 39.7741 18.8872 40.215 19.1811C40.7295 19.5486 41.3174 19.7691 41.9053 19.7691C42.7872 19.7691 43.6691 19.4016 44.3305 18.7402C45.0654 18.0788 45.4329 17.2704 45.4329 16.3885C44.7715 15.8741 43.8161 15.5801 42.5667 15.5801C41.6848 15.5801 40.9499 15.8006 40.362 16.2415C39.7741 16.609 39.4801 17.1234 39.4801 17.7848Z" fill="#5F6368"/>
<path d="M59.3962 9.77429L52.1206 26.4567H49.9159L52.6351 20.6509L47.8582 9.84778H50.2099L53.6639 18.1522H53.7374L57.118 9.84778H59.3962V9.77429Z" fill="#5F6368"/>
<path d="M19.6375 13.0079C19.6375 12.3465 19.564 11.6851 19.4906 11.0237H10.3042V14.7717H15.522C15.3016 15.9476 14.6402 17.0499 13.6113 17.7113V20.1365H16.7714C18.6087 18.4463 19.6375 15.9476 19.6375 13.0079Z" fill="#4285F4"/>
<path d="M10.3042 22.4882C12.9499 22.4882 15.1546 21.6063 16.7714 20.1364L13.6113 17.7112C12.7294 18.2992 11.6271 18.6666 10.3042 18.6666C7.80555 18.6666 5.60083 16.9763 4.86592 14.6246H1.63232V17.1233C3.32261 20.4304 6.6297 22.4882 10.3042 22.4882Z" fill="#34A853"/>
<path d="M4.86605 14.6246C4.4251 13.4488 4.4251 12.126 4.86605 10.8766V8.37793H1.63245C0.236124 11.0971 0.236124 14.3307 1.63245 17.1233L4.86605 14.6246Z" fill="#FBBC04"/>
<path d="M10.3042 6.90812C11.7006 6.90812 13.0234 7.42255 14.0523 8.37793L16.8449 5.58528C15.0811 3.96849 12.7294 3.0131 10.3777 3.0866C6.70319 3.0866 3.32261 5.14434 1.70581 8.45142L4.93941 10.9501C5.60082 8.59841 7.80555 6.90812 10.3042 6.90812Z" fill="#EA4335"/>
</g>
<defs>
<clipPath id="clip0_910_117">
<rect width="58.7927" height="28" fill="white" transform="translate(0.603516)"/>
</clipPath>
</defs>
</svg>
