<svg width="22" height="18" viewBox="0 0 22 18" fill="none" xmlns="http://www.w3.org/2000/svg">
<path d="M2.34643 10.9494C1.9965 10.3665 1.81165 9.69935 1.81165 9.01943C1.81165 8.33951 1.9965 7.67239 2.34643 7.08943C2.45397 6.90995 2.59787 6.75495 2.76889 6.6344C2.9399 6.51384 3.13425 6.4304 3.33943 6.38943L5.03243 6.05043C5.1334 6.03044 5.22446 5.97644 5.29043 5.89743L7.35843 3.41443C8.54043 1.99443 9.13243 1.28543 9.65943 1.47643C10.1864 1.66743 10.1884 2.59143 10.1884 4.43943V13.6014C10.1884 15.4484 10.1884 16.3714 9.66043 16.5634C9.13343 16.7534 8.54143 16.0444 7.35943 14.6254L5.28843 12.1414C5.22272 12.0626 5.13204 12.0086 5.03143 11.9884L3.33843 11.6494C3.13325 11.6085 2.9389 11.525 2.76789 11.4045C2.59687 11.2839 2.45397 11.1289 2.34643 10.9494Z" stroke="#0C0F1E" stroke-opacity="0.5" stroke-width="2"/>
<path d="M14.1885 12.0194L20.1885 6.01941M20.1885 12.0194L14.1885 6.01941" stroke="#0C0F1E" stroke-opacity="0.5" stroke-width="2" stroke-linecap="round"/>
</svg>
