<svg width="1089" height="343" viewBox="0 0 1089 343" fill="none" xmlns="http://www.w3.org/2000/svg">
<path d="M262.771 8.52546C179.216 48.4872 32.9749 63.0195 12.334 52.2643C-9.02573 41.1344 5.98222 20.9361 27.8607 27.8979C42.9574 32.7017 92.3256 89.7881 76.6715 147.143C56.9053 219.564 63.8543 298.248 157.014 320.294C218.234 334.781 495.126 343.205 621.725 339.459C748.323 335.712 811.681 280.322 795.308 255.505C777.012 227.773 745.58 255.096 770.444 275.042C795.308 294.989 887.152 313.517 971.722 298.248C1046.27 284.789 1100.61 231.879 1083.13 167.124C1065.51 101.86 1014.77 11.021 824.868 2.28139C753.903 -0.984631 679.572 24.1404 656.555 79.5918C633.828 134.343 679.572 186.83 713.019 145.003" stroke="white" stroke-width="4"/>
<path d="M724.179 112.793L764.985 127.389C765.671 127.636 766.403 127.726 767.128 127.653C767.853 127.58 768.552 127.346 769.175 126.968C769.798 126.59 770.328 126.078 770.728 125.469C771.127 124.86 771.385 124.169 771.483 123.447L779.808 60.5197C780.315 56.6884 776.346 53.8305 772.843 55.4972L693.733 93.2589C689.822 95.1256 690.115 100.77 694.204 102.224L705.049 106.082L710.961 108.157M739.851 118.393L731.006 133.176C728.117 136.767 722.299 134.736 722.299 130.14V118.304C722.299 116.071 723.14 113.919 724.655 112.277L741.86 93.61" stroke="white" stroke-width="4" stroke-linecap="round" stroke-linejoin="round"/>
</svg>
