<svg width="91" height="24" viewBox="0 0 91 24" fill="none" xmlns="http://www.w3.org/2000/svg">
<g clip-path="url(#clip0_910_100)">
<path d="M33.8503 4.90833H28.8765C28.5362 4.90833 28.2467 5.1556 28.1936 5.4916L26.182 18.2458C26.142 18.4974 26.3369 18.7243 26.5922 18.7243H28.9667C29.3071 18.7243 29.5965 18.4771 29.6496 18.1403L30.1922 14.7003C30.2445 14.3636 30.5347 14.1163 30.8743 14.1163H32.4489C35.7253 14.1163 37.6162 12.5309 38.11 9.38905C38.3325 8.01451 38.1194 6.93451 37.4758 6.17814C36.7689 5.3476 35.5151 4.90833 33.8503 4.90833ZM34.4242 9.56651C34.1522 11.3512 32.7885 11.3512 31.47 11.3512H30.7194L31.246 8.01814C31.2773 7.81669 31.4518 7.66832 31.6554 7.66832H31.9994C32.8976 7.66832 33.7449 7.66833 34.1827 8.18033C34.4438 8.48578 34.5238 8.9396 34.4242 9.56651Z" fill="#253B80"/>
<path d="M48.7181 9.50903H46.3363C46.1333 9.50903 45.9581 9.6574 45.9268 9.85885L45.8213 10.525L45.6548 10.2836C45.1392 9.53522 43.9893 9.28503 42.8417 9.28503C40.2097 9.28503 37.9617 11.2785 37.5239 14.0749C37.2963 15.4698 37.6199 16.8036 38.4112 17.7338C39.137 18.589 40.1755 18.9454 41.4112 18.9454C43.5319 18.9454 44.7079 17.5818 44.7079 17.5818L44.6017 18.2436C44.5617 18.4967 44.7566 18.7236 45.0104 18.7236H47.1559C47.497 18.7236 47.785 18.4763 47.8388 18.1396L49.1261 9.98758C49.1668 9.73667 48.9726 9.50903 48.7181 9.50903ZM45.3981 14.1447C45.1683 15.5054 44.0883 16.4189 42.7108 16.4189C42.0192 16.4189 41.4664 16.197 41.1115 15.7767C40.7595 15.3592 40.6257 14.765 40.7377 14.1032C40.9523 12.7541 42.0504 11.8109 43.4068 11.8109C44.0832 11.8109 44.633 12.0356 44.9952 12.4596C45.3581 12.8879 45.5021 13.4858 45.3981 14.1447Z" fill="#253B80"/>
<path d="M61.4031 9.50903H59.0096C58.7813 9.50903 58.5667 9.62249 58.4373 9.81231L55.1362 14.6749L53.7369 10.0021C53.6489 9.70976 53.3791 9.50903 53.0736 9.50903H50.7216C50.4358 9.50903 50.2373 9.78831 50.3282 10.0574L52.9645 17.7941L50.486 21.293C50.2911 21.5687 50.4875 21.9476 50.8242 21.9476H53.2147C53.4416 21.9476 53.654 21.837 53.7827 21.6509L61.7435 10.1599C61.934 9.88503 61.7384 9.50903 61.4031 9.50903Z" fill="#253B80"/>
<path d="M69.3276 4.90833H64.3531C64.0135 4.90833 63.724 5.1556 63.6709 5.4916L61.6593 18.2458C61.6193 18.4974 61.8142 18.7243 62.068 18.7243H64.6207C64.8578 18.7243 65.0607 18.5512 65.0978 18.3156L65.6687 14.7003C65.7211 14.3636 66.0113 14.1163 66.3509 14.1163H67.9247C71.2018 14.1163 73.092 12.5309 73.5865 9.38905C73.8098 8.01451 73.5953 6.93451 72.9516 6.17814C72.2455 5.3476 70.9924 4.90833 69.3276 4.90833ZM69.9015 9.56651C69.6302 11.3512 68.2666 11.3512 66.9473 11.3512H66.1975L66.7247 8.01814C66.756 7.81669 66.9291 7.66832 67.1335 7.66832H67.4775C68.3749 7.66832 69.2229 7.66833 69.6607 8.18033C69.9218 8.48578 70.0011 8.9396 69.9015 9.56651Z" fill="#179BD7"/>
<path d="M84.1945 9.50903H81.8141C81.6097 9.50903 81.4359 9.6574 81.4054 9.85885L81.2999 10.525L81.1326 10.2836C80.617 9.53522 79.4679 9.28503 78.3203 9.28503C75.6883 9.28503 73.441 11.2785 73.0032 14.0749C72.7763 15.4698 73.0985 16.8036 73.8897 17.7338C74.617 18.589 75.6541 18.9454 76.8897 18.9454C79.0105 18.9454 80.1864 17.5818 80.1864 17.5818L80.0803 18.2436C80.0403 18.4967 80.2352 18.7236 80.4905 18.7236H82.6352C82.9748 18.7236 83.2643 18.4763 83.3174 18.1396L84.6054 9.98758C84.6446 9.73667 84.4497 9.50903 84.1945 9.50903ZM80.8745 14.1447C80.6461 15.5054 79.5646 16.4189 78.1872 16.4189C77.497 16.4189 76.9428 16.197 76.5879 15.7767C76.2359 15.3592 76.1035 14.765 76.2141 14.1032C76.4301 12.7541 77.5268 11.8109 78.8832 11.8109C79.5595 11.8109 80.1094 12.0356 80.4715 12.4596C80.8359 12.8879 80.9799 13.4858 80.8745 14.1447Z" fill="#179BD7"/>
<path d="M87.0025 5.25814L84.961 18.2458C84.921 18.4974 85.1159 18.7243 85.3698 18.7243H87.4221C87.7632 18.7243 88.0527 18.477 88.105 18.1403L90.1181 5.38687C90.1581 5.13523 89.9632 4.90759 89.7094 4.90759H87.4112C87.2083 4.90832 87.0338 5.05668 87.0025 5.25814Z" fill="#179BD7"/>
<path d="M5.52689 21.2029L5.90725 18.7869L5.05998 18.7673H1.01416L3.8258 0.93966C3.83452 0.885842 3.86289 0.83566 3.90434 0.800024C3.9458 0.764387 3.99889 0.744751 4.05416 0.744751H10.876C13.1407 0.744751 14.7036 1.21602 15.5196 2.14621C15.9022 2.58257 16.1458 3.03857 16.2636 3.54039C16.3873 4.06693 16.3894 4.69602 16.2687 5.4633L16.26 5.5193V6.01093L16.6425 6.22766C16.9647 6.39857 17.2207 6.59421 17.4171 6.81821C17.7443 7.1913 17.956 7.66548 18.0454 8.22766C18.1378 8.80584 18.1073 9.49384 17.956 10.2728C17.7814 11.1688 17.4993 11.9491 17.1182 12.5877C16.7676 13.176 16.3211 13.664 15.7909 14.0422C15.2847 14.4015 14.6833 14.6742 14.0033 14.8488C13.3443 15.0204 12.5931 15.1069 11.7691 15.1069H11.2382C10.8585 15.1069 10.4898 15.2437 10.2003 15.4888C9.91016 15.7389 9.71816 16.0808 9.65925 16.4546L9.61925 16.672L8.94725 20.9302L8.91671 21.0866C8.90871 21.136 8.89489 21.1608 8.87452 21.1775C8.85634 21.1928 8.83016 21.2029 8.80471 21.2029H5.52689Z" fill="#253B80"/>
<path d="M17.0045 5.57605C16.9841 5.70623 16.9609 5.83932 16.9347 5.97605C16.035 10.595 12.9572 12.1906 9.02631 12.1906H7.02486C6.54413 12.1906 6.13904 12.5397 6.06413 13.0139L5.0394 19.5128L4.74922 21.355C4.7005 21.6662 4.9405 21.947 5.25468 21.947H8.8045C9.22486 21.947 9.58195 21.6415 9.64813 21.227L9.68304 21.0466L10.3514 16.8051L10.3943 16.5724C10.4598 16.1564 10.8176 15.851 11.2379 15.851H11.7689C15.2081 15.851 17.9005 14.4546 18.6874 10.4139C19.0161 8.72587 18.846 7.31641 17.9761 6.32514C17.7129 6.02623 17.3863 5.77823 17.0045 5.57605Z" fill="#179BD7"/>
<path d="M16.0635 5.20072C15.926 5.16072 15.7842 5.12435 15.6388 5.09163C15.4926 5.05963 15.3428 5.03126 15.1886 5.00653C14.6489 4.91926 14.0577 4.87781 13.4242 4.87781H8.0773C7.94566 4.87781 7.82057 4.90763 7.70857 4.96144C7.46203 5.07999 7.27875 5.31344 7.23439 5.59926L6.09694 12.8036L6.06421 13.0138C6.13912 12.5396 6.54421 12.1905 7.02494 12.1905H9.02639C12.9573 12.1905 16.0351 10.5942 16.9348 5.97599C16.9617 5.83926 16.9842 5.70617 17.0046 5.57599C16.7769 5.45526 16.5304 5.35199 16.2649 5.26399C16.1995 5.24217 16.1318 5.22108 16.0635 5.20072Z" fill="#222D65"/>
<path d="M7.23442 5.59927C7.27879 5.31345 7.46206 5.08 7.70861 4.96218C7.82133 4.90836 7.9457 4.87855 8.07733 4.87855H13.4242C14.0577 4.87855 14.649 4.92 15.1886 5.00727C15.3428 5.032 15.4926 5.06036 15.6388 5.09236C15.7842 5.12509 15.9261 5.16145 16.0635 5.20145C16.1319 5.22182 16.1995 5.24291 16.2657 5.264C16.5312 5.352 16.7777 5.456 17.0053 5.576C17.273 3.86909 17.0032 2.70691 16.0802 1.65455C15.0628 0.496 13.2264 0 10.8766 0H4.05479C3.57479 0 3.16533 0.349091 3.09115 0.824L0.249696 18.8349C0.193696 19.1913 0.468605 19.5127 0.827878 19.5127H5.03952L6.09697 12.8036L7.23442 5.59927Z" fill="#253B80"/>
</g>
<defs>
<clipPath id="clip0_910_100">
<rect width="90.1818" height="24" fill="white" transform="translate(0.242432)"/>
</clipPath>
</defs>
</svg>
