<svg width="1718" height="391" viewBox="0 0 1718 391" fill="none" xmlns="http://www.w3.org/2000/svg">
<path fill-rule="evenodd" clip-rule="evenodd" d="M163.13 21.6814C133.428 21.6556 104.48 31.0363 80.4378 48.4784C56.3957 65.9204 38.4945 90.5278 29.3012 118.772C20.1078 147.016 20.0946 177.446 29.2634 205.698C38.4322 233.95 56.312 258.573 80.3389 276.036C104.366 293.499 133.305 302.905 163.008 302.905C174.069 302.905 188.866 301.53 203.535 298.36C218.346 295.16 232.122 290.32 241.762 283.893L251.991 277.074L308.427 390.901L290.33 390.293L290.693 379.482C290.33 390.293 290.33 390.293 290.33 390.293L290.328 390.292L289.603 390.269C289.121 390.253 288.405 390.23 287.471 390.2C285.603 390.141 282.867 390.057 279.397 389.956C272.458 389.754 262.589 389.484 250.88 389.214C227.45 388.674 196.696 388.135 167.308 388.135C137.92 388.135 107.166 388.674 83.7361 389.214C72.0265 389.484 62.1577 389.754 55.2185 389.956C51.7491 390.057 49.0125 390.141 47.1449 390.2C46.2111 390.23 45.4946 390.253 45.0124 390.269L44.288 390.292L44.2862 390.293C44.2862 390.293 44.2857 390.293 43.9225 379.482L44.2862 390.293L25.7118 390.917L62.8402 320.125L81.9977 330.173L62.0952 368.12C68.0523 367.957 75.2152 367.772 83.2378 367.587C106.749 367.046 137.687 366.503 167.308 366.503C196.929 366.503 227.867 367.046 251.378 367.587C259.614 367.777 266.944 367.967 272.994 368.133L243.143 307.927C232.324 313.195 220.009 316.932 208.105 319.505C191.939 322.998 175.61 324.537 163.008 324.537C128.736 324.537 95.3439 313.684 67.6205 293.535C39.8972 273.385 19.2667 244.974 8.68729 212.376C-1.89208 179.777 -1.87682 144.666 8.73088 112.076C19.3386 79.487 39.9938 51.0938 67.7347 30.9684C95.4755 10.843 128.877 0.0190991 163.149 0.0488895C197.421 0.0786808 230.804 10.9606 258.51 31.1342C285.948 51.1134 308.135 79.1845 317.5 112.769C324.786 138.898 325.245 179.991 310.25 211.743C297.295 239.174 267 255.469 239.195 257.148C225.075 258.001 210.627 255.17 198.794 247.189C186.714 239.041 178.272 226.119 175.594 208.774C174.606 202.381 173.675 189.057 172.941 174.251C168.259 177.3 163.567 180.255 159.037 183.099C158.525 183.42 158.016 183.739 157.51 184.057C154.652 185.85 151.875 187.593 149.203 189.29C149.452 198.512 149.632 206.815 149.332 213.846C149.026 221.023 148.196 228.063 145.741 233.935C143.032 240.415 138.246 245.632 130.811 247.964C123.066 250.394 115.258 249.233 109.038 244.913C102.992 240.714 99.2572 234.12 97.9791 226.963C95.3698 212.349 102.579 195.548 120.114 182.746C122.36 181.106 124.754 179.443 127.252 177.763C127.077 170.686 126.931 162.933 126.931 154.545C126.931 135.178 122.876 125.066 118.933 120.008C115.275 115.315 110.927 113.95 106.922 113.95V92.3177C116.595 92.3177 127.66 96.0164 135.994 106.708C144.044 117.034 148.563 132.627 148.563 154.545C148.563 157.826 148.586 161.008 148.625 164.093C156.58 159.095 164.542 154.038 171.917 148.86C171.587 138.394 171.396 128.723 171.396 121.794C171.396 102.722 181.249 89.4142 195.743 87.2943C209.028 85.3512 222.983 94.2432 224.463 110.108C225.539 121.635 220.627 131.831 214.054 140.229C208.651 147.134 201.559 153.563 193.941 159.495C194.702 178.805 195.841 198.143 196.973 205.473C198.793 217.262 204.137 224.699 210.891 229.255C217.892 233.977 227.325 236.193 237.891 235.555C259.459 234.253 281.759 221.415 290.689 202.505C303.014 176.408 302.865 140.823 296.663 118.58C288.844 90.5407 270.055 66.3004 245.776 48.6221C221.764 31.1383 192.833 21.7073 163.13 21.6814ZM193.12 131.378C194.556 129.871 195.86 128.377 197.019 126.896C201.8 120.787 203.286 115.996 202.924 112.118C202.687 109.576 200.901 108.403 198.874 108.699C197.971 108.831 196.773 109.333 195.645 110.889C194.47 112.509 193.028 115.797 193.028 121.794C193.028 124.604 193.06 127.841 193.12 131.378ZM127.854 204.385C119.703 212.172 118.604 219.403 119.275 223.16C119.696 225.52 120.728 226.694 121.378 227.145C121.853 227.475 122.669 227.847 124.336 227.324C124.361 227.316 124.386 227.308 124.411 227.301C124.774 227.193 125.161 227.079 125.783 225.591C126.702 223.393 127.438 219.531 127.72 212.924C127.83 210.329 127.867 207.493 127.854 204.385Z" fill="white"/>
<path d="M420.287 288.735V101.829H431.19V189.831H544.371V101.829H555.274V288.735H544.371V200.733H431.19V288.735H420.287Z" fill="white"/>
<path d="M642.797 292.629C628.952 292.629 617.27 289.47 607.752 283.153C598.234 276.837 591.008 268.097 586.076 256.935C581.144 245.772 578.678 232.923 578.678 218.386C578.678 203.675 581.187 190.782 586.206 179.707C591.225 168.631 598.493 160.021 608.011 153.877C617.616 147.734 629.211 144.662 642.797 144.662C656.728 144.662 668.453 147.82 677.971 154.137C687.489 160.367 694.671 169.02 699.517 180.096C704.449 191.172 706.915 203.935 706.915 218.386C706.915 233.182 704.449 246.162 699.517 257.324C694.585 268.4 687.316 277.053 677.711 283.283C668.193 289.513 656.555 292.629 642.797 292.629ZM642.797 281.726C660.449 281.726 673.601 275.885 682.254 264.203C690.907 252.435 695.234 237.163 695.234 218.386C695.234 199.262 690.864 184.033 682.125 172.698C673.472 161.276 660.362 155.565 642.797 155.565C630.942 155.565 621.121 158.247 613.333 163.612C605.632 168.977 599.878 176.375 596.07 185.807C592.263 195.239 590.359 206.098 590.359 218.386C590.359 237.422 594.772 252.738 603.598 264.333C612.511 275.928 625.577 281.726 642.797 281.726Z" fill="white"/>
<path d="M732.931 288.735V97.9355H743.834V288.735H732.931Z" fill="white"/>
<path d="M833.951 292.629C820.106 292.629 808.424 289.47 798.906 283.153C789.388 276.837 782.162 268.097 777.23 256.935C772.298 245.772 769.832 232.923 769.832 218.386C769.832 203.675 772.341 190.782 777.36 179.707C782.379 168.631 789.647 160.021 799.165 153.877C808.77 147.734 820.365 144.662 833.951 144.662C847.882 144.662 859.607 147.82 869.125 154.137C878.643 160.367 885.826 169.02 890.671 180.096C895.603 191.172 898.07 203.935 898.07 218.386C898.07 233.182 895.603 246.162 890.671 257.324C885.739 268.4 878.47 277.053 868.866 283.283C859.347 289.513 847.709 292.629 833.951 292.629ZM833.951 281.726C851.603 281.726 864.755 275.885 873.408 264.203C882.061 252.435 886.388 237.163 886.388 218.386C886.388 199.262 882.018 184.033 873.279 172.698C864.626 161.276 851.516 155.565 833.951 155.565C822.096 155.565 812.275 158.247 804.487 163.612C796.786 168.977 791.032 176.375 787.224 185.807C783.417 195.239 781.513 206.098 781.513 218.386C781.513 237.422 785.926 252.738 794.752 264.333C803.665 275.928 816.731 281.726 833.951 281.726Z" fill="white"/>
<path d="M975.095 292.499C958.048 292.499 944.16 288.735 933.431 281.207C922.701 273.678 916.125 263.078 913.702 249.407L941.478 245.123C943.209 252.392 947.189 258.146 953.419 262.386C959.736 266.54 967.567 268.616 976.912 268.616C985.392 268.616 992.012 266.886 996.771 263.425C1001.62 259.963 1004.04 255.204 1004.04 249.147C1004.04 245.599 1003.17 242.744 1001.44 240.581C999.799 238.331 996.295 236.211 990.93 234.221C985.565 232.23 977.388 229.764 966.399 226.822C954.371 223.707 944.809 220.376 937.714 216.828C930.705 213.194 925.686 208.997 922.658 204.238C919.716 199.392 918.245 193.551 918.245 186.715C918.245 178.236 920.494 170.837 924.994 164.521C929.493 158.204 935.81 153.315 943.944 149.854C952.164 146.392 961.769 144.662 972.759 144.662C983.488 144.662 993.05 146.349 1001.44 149.724C1009.84 153.099 1016.63 157.901 1021.82 164.131C1027.01 170.275 1030.13 177.5 1031.17 185.807L1003.39 190.869C1002.44 184.12 999.28 178.798 993.915 174.904C988.55 171.01 981.585 168.89 973.018 168.544C964.798 168.198 958.135 169.583 953.03 172.698C947.924 175.726 945.372 179.923 945.372 185.288C945.372 188.403 946.324 191.042 948.227 193.205C950.218 195.369 954.025 197.445 959.649 199.435C965.274 201.426 973.581 203.805 984.57 206.574C996.338 209.603 1005.68 212.977 1012.61 216.698C1019.53 220.332 1024.46 224.702 1027.4 229.808C1030.43 234.826 1031.95 240.927 1031.95 248.109C1031.95 261.954 1026.88 272.813 1016.76 280.687C1006.72 288.562 992.834 292.499 975.095 292.499Z" fill="white"/>
<path d="M1108.3 292.629C1094.89 292.629 1083.64 289.384 1074.55 282.894C1065.47 276.318 1058.59 267.448 1053.92 256.286C1049.24 245.123 1046.91 232.533 1046.91 218.515C1046.91 204.497 1049.2 191.907 1053.79 180.745C1058.46 169.583 1065.29 160.8 1074.29 154.396C1083.38 147.907 1094.54 144.662 1107.78 144.662C1120.93 144.662 1132.27 147.907 1141.79 154.396C1151.39 160.8 1158.79 169.583 1163.98 180.745C1169.17 191.821 1171.77 204.411 1171.77 218.515C1171.77 232.533 1169.17 245.167 1163.98 256.416C1158.88 267.578 1151.56 276.404 1142.05 282.894C1132.61 289.384 1121.37 292.629 1108.3 292.629ZM1042.36 351.036V148.556H1066.51V249.407H1069.62V351.036H1042.36ZM1104.54 268.097C1113.19 268.097 1120.33 265.891 1125.95 261.478C1131.66 257.065 1135.9 251.137 1138.67 243.696C1141.53 236.168 1142.95 227.774 1142.95 218.515C1142.95 209.343 1141.53 201.036 1138.67 193.595C1135.9 186.153 1131.62 180.226 1125.82 175.813C1120.02 171.4 1112.63 169.193 1103.63 169.193C1095.15 169.193 1088.14 171.27 1082.6 175.423C1077.15 179.577 1073.08 185.374 1070.4 192.816C1067.8 200.257 1066.51 208.824 1066.51 218.515C1066.51 228.207 1067.8 236.773 1070.4 244.215C1072.99 251.656 1077.11 257.497 1082.73 261.737C1088.35 265.977 1095.62 268.097 1104.54 268.097Z" fill="white"/>
<path d="M1280.64 288.735V219.813C1280.64 214.362 1280.17 208.781 1279.21 203.07C1278.35 197.272 1276.62 191.907 1274.02 186.975C1271.51 182.043 1267.92 178.062 1263.25 175.034C1258.66 172.005 1252.65 170.491 1245.21 170.491C1240.36 170.491 1235.78 171.313 1231.45 172.957C1227.12 174.515 1223.32 177.067 1220.03 180.615C1216.83 184.163 1214.27 188.835 1212.37 194.633C1210.55 200.431 1209.64 207.483 1209.64 215.79L1192.77 209.43C1192.77 196.71 1195.15 185.504 1199.91 175.813C1204.67 166.035 1211.5 158.42 1220.42 152.969C1229.33 147.517 1240.1 144.792 1252.74 144.792C1262.43 144.792 1270.56 146.349 1277.14 149.464C1283.71 152.579 1289.03 156.69 1293.1 161.795C1297.26 166.814 1300.41 172.308 1302.58 178.279C1304.74 184.249 1306.21 190.09 1306.99 195.801C1307.77 201.512 1308.16 206.531 1308.16 210.857V288.735H1280.64ZM1182.13 288.735V101.829H1206.4V202.68H1209.64V288.735H1182.13Z" fill="white"/>
<path d="M1385.97 292.629C1372.03 292.629 1359.79 289.6 1349.23 283.543C1338.76 277.399 1330.59 268.876 1324.7 257.973C1318.91 246.984 1316.01 234.264 1316.01 219.813C1316.01 204.497 1318.86 191.215 1324.57 179.966C1330.37 168.717 1338.42 160.021 1348.71 153.877C1359.01 147.734 1371 144.662 1384.67 144.662C1398.95 144.662 1411.1 147.993 1421.14 154.656C1431.18 161.232 1438.66 170.621 1443.6 182.822C1448.61 195.022 1450.6 209.516 1449.57 226.303H1422.44V216.439C1422.27 200.171 1419.15 188.143 1413.09 180.356C1407.12 172.568 1397.99 168.674 1385.71 168.674C1372.12 168.674 1361.91 172.957 1355.07 181.524C1348.24 190.09 1344.82 202.464 1344.82 218.645C1344.82 234.048 1348.24 245.989 1355.07 254.469C1361.91 262.862 1371.78 267.059 1384.67 267.059C1393.15 267.059 1400.46 265.155 1406.6 261.348C1412.83 257.454 1417.68 251.916 1421.14 244.734L1447.75 253.171C1442.3 265.718 1434.03 275.452 1422.96 282.375C1411.88 289.211 1399.55 292.629 1385.97 292.629ZM1335.99 226.303V205.146H1436.07V226.303H1335.99Z" fill="white"/>
<path d="M1460.52 288.735V148.556H1484.66V182.562L1481.28 178.149C1483.01 173.649 1485.26 169.539 1488.03 165.818C1490.8 162.011 1494 158.896 1497.64 156.473C1501.18 153.877 1505.12 151.887 1509.45 150.503C1513.86 149.032 1518.36 148.166 1522.95 147.907C1527.53 147.561 1531.95 147.777 1536.19 148.556V173.996C1531.6 172.784 1526.49 172.438 1520.87 172.957C1515.33 173.476 1510.23 175.25 1505.55 178.279C1501.14 181.134 1497.64 184.596 1495.04 188.662C1492.53 192.729 1490.71 197.272 1489.59 202.291C1488.46 207.223 1487.9 212.458 1487.9 217.996V288.735H1460.52Z" fill="white"/>
<path d="M1602.37 292.629C1588.44 292.629 1576.19 289.6 1565.64 283.543C1555.17 277.399 1546.99 268.876 1541.11 257.973C1535.31 246.984 1532.41 234.264 1532.41 219.813C1532.41 204.497 1535.27 191.215 1540.98 179.966C1546.77 168.717 1554.82 160.021 1565.12 153.877C1575.42 147.734 1587.4 144.662 1601.07 144.662C1615.35 144.662 1627.51 147.993 1637.54 154.656C1647.58 161.232 1655.07 170.621 1660 182.822C1665.02 195.022 1667.01 209.516 1665.97 226.303H1638.84V216.439C1638.67 200.171 1635.55 188.143 1629.5 180.356C1623.53 172.568 1614.4 168.674 1602.11 168.674C1588.52 168.674 1578.31 172.957 1571.48 181.524C1564.64 190.09 1561.22 202.464 1561.22 218.645C1561.22 234.048 1564.64 245.989 1571.48 254.469C1578.31 262.862 1588.18 267.059 1601.07 267.059C1609.55 267.059 1616.86 265.155 1623.01 261.348C1629.24 257.454 1634.08 251.916 1637.54 244.734L1664.15 253.171C1658.7 265.718 1650.44 275.452 1639.36 282.375C1628.29 289.211 1615.95 292.629 1602.37 292.629ZM1552.4 226.303V205.146H1652.47V226.303H1552.4Z" fill="white"/>
<path d="M1679.97 267.875C1673.52 285.06 1659.96 298.62 1642.78 305.065C1659.96 311.509 1673.52 325.069 1679.97 342.255C1686.41 325.069 1699.97 311.509 1717.16 305.065C1699.97 298.62 1686.41 285.06 1679.97 267.875Z" fill="#FCDAAF"/>
<path d="M903.893 90.4839C897.463 107.629 883.935 121.158 866.789 127.588C883.935 134.017 897.463 147.546 903.893 164.691C910.323 147.546 923.851 134.017 940.997 127.588C923.851 121.158 910.323 107.629 903.893 90.4839Z" fill="#FCDAAF"/>
</svg>
