<svg width="1512" height="186" viewBox="0 0 1512 186" fill="none" xmlns="http://www.w3.org/2000/svg">
<path d="M829.439 88.1636C845.526 88.1636 859.391 92.133 871.033 100.071C882.781 107.903 891.831 118.646 898.182 132.299C904.532 145.847 907.707 161.246 907.707 178.498C907.707 195.643 904.532 211.096 898.182 224.855C891.937 238.508 882.994 249.304 871.352 257.242C859.815 265.18 846.056 269.149 830.074 269.149C813.669 269.149 799.91 265.18 788.797 257.242C786.689 255.716 784.678 254.088 782.764 252.36V340.59H749.425V92.9263H778.953V108.247C781.871 105.238 785.047 102.513 788.48 100.071C799.593 92.1331 813.245 88.1636 829.439 88.1636ZM1529.31 238.87C1537.19 259.89 1553.78 276.476 1574.8 284.359C1553.78 292.242 1537.19 308.828 1529.31 329.848C1521.42 308.828 1504.84 292.242 1483.82 284.359C1504.84 276.476 1521.42 259.89 1529.31 238.87ZM151.795 0.818869C168.666 -1.87702 185.178 10.377 186.934 30.9107L187.109 33.9761C187.555 49.2108 181.599 63.3673 172.179 76.3648C162.296 89.9995 148.302 102.751 132.879 114.755C132.978 122.995 133.131 131.359 133.334 139.58C133.735 155.816 134.37 171.447 135.373 184.509C136.391 197.757 137.751 207.812 139.43 213.238C146.205 235.126 166.822 251.139 195.127 251.139V263.074C162.003 263.074 136.471 244.031 128.031 216.757C125.908 209.892 124.485 198.591 123.474 185.418C122.448 172.06 121.803 156.199 121.4 139.872C121.267 134.487 121.183 129.042 121.097 123.613C108.503 132.773 95.2258 141.627 82.4376 150.139C74.5636 155.381 66.8924 160.495 59.6408 165.501C59.6907 167.474 59.7324 169.423 59.7804 171.339C60.2419 189.752 60.5882 205.646 60.0724 218.855C59.5601 231.974 58.1927 243.054 54.921 251.605C51.753 259.884 46.6514 266.122 38.7794 269.355L37.1593 269.961C27.2054 273.373 17.6839 271.64 10.2951 266.034C3.06448 260.547 -1.67156 251.726 -3.32993 241.583C-6.67265 221.13 2.20864 194.584 29.6417 172.703C35.1611 168.3 41.2013 163.856 47.5666 159.37C47.186 143.926 46.797 126.724 46.797 107.786C46.7968 69.5202 39.5002 46.7387 30.1779 33.6734C21.047 20.8768 9.64007 16.9136 -0.380713 16.9136V4.97902C13.1829 4.97908 28.3508 10.5564 39.8976 26.7388C51.252 42.6525 58.7314 68.2896 58.7316 107.786C58.7316 123.472 58.9987 137.959 59.3029 151.281C64.7089 147.616 70.2485 143.913 75.8292 140.198C91.0872 130.041 106.656 119.647 120.899 108.893C120.683 86.678 120.747 65.8313 120.747 51.5396C120.748 20.9311 134.552 3.57527 151.795 0.818869ZM1168.11 88.1636C1185.58 88.1636 1200.45 92.2386 1212.72 100.388C1225 108.432 1234.16 119.916 1240.19 134.839C1246.33 149.763 1248.76 167.49 1247.49 188.023H1119.75C1120.94 202.406 1125 213.89 1131.92 222.474C1140.28 232.74 1152.34 237.874 1168.11 237.874C1178.49 237.874 1187.43 235.545 1194.94 230.888C1202.56 226.125 1208.49 219.352 1212.72 210.567L1245.27 220.886C1238.6 236.233 1228.49 248.14 1214.95 256.607C1201.4 264.968 1186.32 269.149 1169.7 269.149C1152.66 269.149 1137.68 265.444 1124.77 258.036C1111.97 250.521 1101.96 240.096 1094.77 226.76C1087.68 213.319 1084.13 197.76 1084.13 180.085C1084.13 161.352 1087.62 145.105 1094.61 131.346C1101.7 117.587 1111.54 106.951 1124.14 99.4361C1136.73 91.9215 1151.39 88.1636 1168.11 88.1636ZM1432.81 88.1636C1450.27 88.1636 1465.14 92.2387 1477.42 100.388C1489.69 108.432 1498.85 119.916 1504.88 134.839C1511.02 149.763 1513.46 167.49 1512.19 188.023H1384.44C1385.64 202.406 1389.69 213.89 1396.61 222.474C1404.97 232.74 1417.04 237.874 1432.81 237.874C1443.18 237.874 1452.12 235.545 1459.64 230.888C1467.26 226.125 1473.18 219.351 1477.42 210.567L1509.96 220.886C1503.3 236.233 1493.19 248.14 1479.64 256.607C1466.09 264.968 1451.01 269.149 1434.39 269.149C1417.35 269.149 1402.38 265.444 1389.46 258.036C1376.66 250.521 1366.66 240.096 1359.46 226.76C1352.37 213.319 1348.82 197.76 1348.82 180.085C1348.82 161.352 1352.32 145.105 1359.3 131.346C1366.39 117.587 1376.24 106.951 1388.83 99.4361C1401.42 91.9216 1416.08 88.1636 1432.81 88.1636ZM664.288 88.1636C677.412 88.1636 689.107 90.2284 699.373 94.356C709.64 98.4837 717.949 104.358 724.299 111.978C730.649 119.493 734.46 128.33 735.73 138.491L701.755 144.682C700.591 136.427 696.727 129.918 690.165 125.155C683.603 120.392 675.083 117.799 664.606 117.376C654.551 116.952 646.401 118.645 640.156 122.456C633.912 126.16 630.79 131.293 630.79 137.855C630.79 141.665 631.954 144.894 634.282 147.54C636.717 150.186 641.374 152.725 648.253 155.16C655.133 157.594 665.293 160.505 678.735 163.892C693.128 167.596 704.559 171.724 713.027 176.275C721.494 180.72 727.527 186.066 731.125 192.31C734.829 198.449 736.682 205.91 736.682 214.695C736.682 231.629 730.49 244.912 718.107 254.543C705.829 264.175 688.842 268.99 667.146 268.99C646.295 268.99 629.308 264.386 616.184 255.178C603.06 245.97 595.016 233.004 592.053 216.282L626.027 211.043C628.144 219.934 633.013 226.972 640.633 232.158C648.359 237.238 657.938 239.779 669.368 239.779C679.74 239.779 687.837 237.662 693.658 233.428C699.585 229.195 702.549 223.373 702.549 215.964C702.549 211.625 701.49 208.133 699.373 205.487C697.362 202.735 693.076 200.142 686.514 197.708C679.952 195.273 669.95 192.256 656.509 188.658C641.797 184.848 630.102 180.773 621.423 176.434C612.85 171.989 606.711 166.856 603.007 161.035C599.408 155.108 597.61 147.963 597.61 139.602C597.61 129.23 600.361 120.18 605.864 112.454C611.368 104.728 619.094 98.7477 629.043 94.5142C639.098 90.2806 650.847 88.1636 664.288 88.1636ZM950.064 113.525C954.83 107.47 960.544 102.402 967.209 98.3247C978.111 91.6569 991.288 88.3228 1006.74 88.3228C1018.59 88.3228 1028.54 90.2274 1036.59 94.0376C1044.63 97.8478 1051.14 102.875 1056.11 109.12C1061.19 115.258 1065.06 121.98 1067.7 129.283C1070.35 136.586 1072.15 143.73 1073.1 150.715C1074.05 157.7 1074.53 163.839 1074.53 169.13V264.386H1040.87V180.085C1040.87 173.418 1040.29 166.59 1039.13 159.605C1038.07 152.514 1035.95 145.952 1032.78 139.919C1029.71 133.887 1025.32 129.017 1019.6 125.313C1013.99 121.609 1006.63 119.757 997.532 119.757C991.605 119.757 985.995 120.762 980.703 122.773C975.411 124.678 970.754 127.801 966.733 132.14C962.817 136.479 959.695 142.195 957.366 149.286C955.144 156.377 954.032 165.003 954.032 175.164V264.386H920.375V35.7739H950.064V113.525ZM1337.25 92.1333C1342.86 91.71 1348.26 91.9737 1353.44 92.9263V124.043C1347.83 122.562 1341.59 122.138 1334.71 122.773C1327.93 123.408 1321.69 125.578 1315.97 129.283C1310.58 132.775 1306.29 137.009 1303.12 141.983C1300.05 146.957 1297.82 152.514 1296.45 158.653C1295.07 164.686 1294.38 171.089 1294.38 177.863V264.386H1260.88V92.9263H1290.41V120.372C1291.67 118.168 1293.04 116.058 1294.54 114.042C1297.93 109.385 1301.85 105.574 1306.29 102.611C1310.63 99.4357 1315.45 97.0016 1320.74 95.3081C1326.14 93.5089 1331.64 92.4508 1337.25 92.1333ZM274.468 91.687C289.717 91.687 303.223 95.1723 314.986 102.143C326.968 109.114 336.335 119.026 343.088 131.878C350.059 144.731 353.544 160.198 353.544 178.279C353.544 195.706 350.059 210.955 343.088 224.026C336.117 236.878 326.641 246.79 314.66 253.761C302.679 260.732 289.064 264.217 273.815 264.217C258.784 264.217 245.277 260.732 233.296 253.761C221.533 246.79 212.165 236.878 205.194 224.026C198.441 210.955 195.066 195.706 195.066 178.279C195.066 160.198 198.551 144.731 205.522 131.878C212.492 119.026 221.968 109.114 233.949 102.143C245.931 95.1722 259.437 91.6871 274.468 91.687ZM498.823 91.687C514.072 91.6871 527.579 95.1722 539.342 102.143C551.323 109.114 560.69 119.026 567.444 131.878C574.414 144.731 577.9 160.198 577.9 178.279C577.9 195.706 574.414 210.955 567.444 224.026C560.473 236.878 550.996 246.79 539.015 253.761C527.034 260.732 513.419 264.217 498.17 264.217C483.139 264.217 469.633 260.732 457.652 253.761C445.888 246.79 436.521 236.878 429.55 224.026C422.797 210.955 419.42 195.706 419.42 178.279C419.42 160.198 422.905 144.731 429.876 131.878C436.847 119.026 446.324 109.114 458.305 102.143C470.286 95.1723 483.792 91.687 498.823 91.687ZM394.081 260.295H379.377V25.0269H394.081V260.295ZM47.9044 173.798C44.1089 176.568 40.4844 179.309 37.0773 182.027C12.3441 201.755 5.93605 224.256 8.45327 239.659C9.72564 247.438 13.1988 253.252 17.5089 256.524C21.6628 259.676 27.0166 260.829 33.2892 258.68L34.9914 257.992C38.8056 256.186 41.6355 252.911 43.7677 247.339C46.3123 240.689 47.648 231.234 48.1496 218.389C48.6281 206.133 48.3387 191.347 47.9044 173.798ZM274.468 105.084C263.358 105.085 252.902 107.807 243.099 113.253C233.296 118.699 225.345 126.868 219.245 137.76C213.364 148.434 210.423 161.832 210.423 177.952C210.423 194.072 213.364 207.578 219.245 218.47C225.345 229.362 233.188 237.532 242.773 242.978C252.357 248.424 262.705 251.147 273.815 251.147C285.142 251.147 295.599 248.424 305.184 242.978C314.987 237.532 322.938 229.362 329.037 218.47C335.137 207.578 338.187 194.072 338.187 177.952C338.187 161.832 335.137 148.326 329.037 137.434C323.156 126.542 315.314 118.482 305.511 113.253C295.926 107.807 285.578 105.084 274.468 105.084ZM498.823 105.084C487.714 105.084 477.257 107.807 467.454 113.253C457.651 118.699 449.7 126.868 443.601 137.76C437.719 148.434 434.778 161.832 434.777 177.952C434.777 194.072 437.719 207.578 443.601 218.47C449.7 229.362 457.542 237.532 467.127 242.978C476.712 248.424 487.06 251.147 498.17 251.147C509.497 251.147 519.954 248.424 529.538 242.978C539.341 237.532 547.293 229.362 553.393 218.47C559.492 207.578 562.541 194.072 562.541 177.952C562.541 161.832 559.492 148.326 553.393 137.434C547.511 126.542 539.668 118.482 529.865 113.253C520.28 107.807 509.933 105.085 498.823 105.084ZM824.359 118.169C813.986 118.169 805.413 120.709 798.64 125.79C791.972 130.87 786.997 137.961 783.716 147.063C780.541 156.165 778.953 166.644 778.953 178.498C778.953 190.352 780.541 200.83 783.716 209.932C786.891 219.034 791.919 226.178 798.799 231.364C805.678 236.55 814.569 239.143 825.47 239.143C836.054 239.143 844.786 236.444 851.665 231.046C858.65 225.649 863.837 218.398 867.224 209.296C870.716 200.089 872.463 189.822 872.463 178.498C872.463 167.279 870.716 157.118 867.224 148.016C863.837 138.914 858.597 131.664 851.506 126.266C844.415 120.868 835.366 118.169 824.359 118.169ZM1169.38 117.535C1152.77 117.535 1140.28 122.773 1131.92 133.251C1126.06 140.595 1122.25 150.227 1120.5 162.145H1213.49C1211.99 149.1 1208.46 138.992 1202.88 131.823C1195.58 122.297 1184.41 117.535 1169.38 117.535ZM1434.08 117.535C1417.46 117.535 1404.97 122.774 1396.61 133.251C1390.75 140.595 1386.95 150.227 1385.19 162.145H1478.19C1476.69 149.1 1473.15 138.992 1467.57 131.823C1460.27 122.297 1449.11 117.535 1434.08 117.535ZM580.054 21.897C587.918 42.8685 604.466 59.4155 625.438 67.2798C604.466 75.1441 587.918 91.6912 580.054 112.663C572.189 91.6913 555.642 75.1441 534.671 67.2798C555.642 59.4155 572.189 42.8683 580.054 21.897ZM175.046 31.9253C173.837 17.7925 163.209 11.0915 153.683 12.6128C144.528 14.0758 132.681 24.1141 132.681 51.5396C132.681 63.8714 132.641 80.9587 132.763 99.5571C144.744 89.684 155.056 79.6547 162.518 69.3599C170.97 57.6976 175.537 46.0899 175.186 34.2905L175.046 31.9253Z" fill="#5A358E"/>
</svg>
