<svg width="133" height="29" viewBox="0 0 133 29" fill="none" xmlns="http://www.w3.org/2000/svg">
<path d="M1.00708 0.983069C2.98325 0.983069 5.4604 2.58144 5.4604 9.09747C5.4604 17.1494 6.25049 21.4389 3.99065 22.2134C1.27101 23.1456 -0.536864 18.4141 3.83439 14.9274C8.20564 11.4408 16.6198 7.56181 16.2043 2.69873C15.9561 -0.206489 11.6561 -0.47848 11.6561 4.3846C11.6561 7.88601 11.6069 16.021 12.2443 18.0808C12.8817 20.1405 14.8149 21.6086 17.3886 21.6086" stroke="#0C0F1E"/>
<path d="M42.7811 22.2049C41.5217 22.2049 40.39 21.9129 39.386 21.3288C38.4004 20.7447 37.6155 19.9141 37.0314 18.8372C36.4655 17.742 36.1826 16.4643 36.1826 15.004C36.1826 13.489 36.4747 12.1931 37.0588 11.1161C37.6429 10.0392 38.4369 9.20868 39.4408 8.62458C40.4447 8.04048 41.5764 7.74843 42.8359 7.74843C44.1136 7.74843 45.2453 8.04048 46.231 8.62458C47.2349 9.20868 48.0198 10.0392 48.5856 11.1161C49.1697 12.1931 49.4618 13.489 49.4618 15.004C49.4618 16.4643 49.1697 17.742 48.5856 18.8372C48.0015 19.9141 47.2075 20.7447 46.2036 21.3288C45.1997 21.9129 44.0588 22.2049 42.7811 22.2049ZM42.7811 21.1097C43.7303 21.1097 44.6064 20.8816 45.4096 20.4252C46.231 19.9689 46.8972 19.2844 47.4083 18.3717C47.9194 17.4591 48.1749 16.3274 48.1749 14.9767C48.1749 13.6259 47.9194 12.4942 47.4083 11.5816C46.9155 10.6689 46.2583 9.99356 45.4369 9.55549C44.6338 9.09916 43.7668 8.871 42.8359 8.871C41.905 8.871 41.0288 9.09916 40.2074 9.55549C39.386 10.0118 38.7198 10.6963 38.2087 11.609C37.7159 12.5034 37.4695 13.6259 37.4695 14.9767C37.4695 16.3274 37.7159 17.4591 38.2087 18.3717C38.7198 19.2844 39.3769 19.9689 40.1801 20.4252C40.9832 20.8816 41.8502 21.1097 42.7811 21.1097Z" fill="#0C0F1E"/>
<path d="M32.8274 21.8763V2.16293H34.0595V21.8763H32.8274Z" fill="#0C0F1E"/>
<path d="M23.9823 22.2049C22.7228 22.2049 21.5911 21.9129 20.5872 21.3288C19.6015 20.7447 18.8167 19.9141 18.2326 18.8372C17.6667 17.742 17.3838 16.4643 17.3838 15.004C17.3838 13.489 17.6758 12.1931 18.2599 11.1161C18.844 10.0392 19.638 9.20868 20.642 8.62458C21.6459 8.04048 22.7776 7.74843 24.0371 7.74843C25.3148 7.74843 26.4465 8.04048 27.4321 8.62458C28.4361 9.20868 29.2209 10.0392 29.7868 11.1161C30.3709 12.1931 30.6629 13.489 30.6629 15.004C30.6629 16.4643 30.3709 17.742 29.7868 18.8372C29.2027 19.9141 28.4087 20.7447 27.4048 21.3288C26.4008 21.9129 25.26 22.2049 23.9823 22.2049ZM23.9823 21.1097C24.9315 21.1097 25.8076 20.8816 26.6107 20.4252C27.4321 19.9689 28.0984 19.2844 28.6095 18.3717C29.1205 17.4591 29.3761 16.3274 29.3761 14.9767C29.3761 13.6259 29.1205 12.4942 28.6095 11.5816C28.1166 10.6689 27.4595 9.99356 26.6381 9.55549C25.835 9.09916 24.968 8.871 24.0371 8.871C23.1061 8.871 22.23 9.09916 21.4086 9.55549C20.5872 10.0118 19.921 10.6963 19.4099 11.609C18.9171 12.5034 18.6706 13.6259 18.6706 14.9767C18.6706 16.3274 18.9171 17.4591 19.4099 18.3717C19.921 19.2844 20.5781 19.9689 21.3812 20.4252C22.1844 20.8816 23.0514 21.1097 23.9823 21.1097Z" fill="#0C0F1E"/>
<path d="M56.9398 22.6048C55.1927 22.6048 53.7694 22.219 52.6697 21.4475C51.57 20.676 50.896 19.5896 50.6477 18.1884L53.4945 17.7494C53.6718 18.4943 54.0798 19.0841 54.7183 19.5186C55.3657 19.9443 56.1683 20.1572 57.126 20.1572C57.9951 20.1572 58.6736 19.9798 59.1613 19.6251C59.658 19.2703 59.9063 18.7826 59.9063 18.1618C59.9063 17.7982 59.8176 17.5055 59.6402 17.2838C59.4717 17.0532 59.1126 16.836 58.5627 16.632C58.0129 16.428 57.1748 16.1753 56.0485 15.8737C54.8158 15.5545 53.8359 15.213 53.1087 14.8494C52.3903 14.477 51.876 14.0469 51.5656 13.5591C51.2641 13.0625 51.1133 12.4638 51.1133 11.7632C51.1133 10.8941 51.3439 10.1359 51.805 9.48852C52.2662 8.84112 52.9136 8.34006 53.7472 7.98532C54.5897 7.63059 55.5741 7.45323 56.7004 7.45323C57.8 7.45323 58.78 7.62616 59.6402 7.97202C60.5005 8.31789 61.1966 8.81008 61.7287 9.44861C62.2608 10.0783 62.5801 10.8188 62.6865 11.6701L59.8398 12.1889C59.7422 11.4972 59.4185 10.9518 58.8687 10.5527C58.3188 10.1536 57.6049 9.93637 56.727 9.90089C55.8845 9.86542 55.2016 10.0073 54.6784 10.3266C54.1552 10.637 53.8935 11.0671 53.8935 11.6169C53.8935 11.9362 53.9911 12.2067 54.1862 12.4284C54.3902 12.6501 54.7804 12.8629 55.3568 13.0669C55.9333 13.2709 56.7846 13.5147 57.9109 13.7985C59.117 14.1089 60.0748 14.4548 60.7842 14.8361C61.4937 15.2086 61.9992 15.6565 62.3007 16.1797C62.6111 16.6941 62.7663 17.3193 62.7663 18.0554C62.7663 19.4743 62.2475 20.5873 61.2099 21.3943C60.1812 22.2013 58.7578 22.6048 56.9398 22.6048Z" fill="#0C0F1E"/>
<path d="M70.5918 22.6181C69.2172 22.6181 68.0643 22.2856 67.1331 21.6204C66.2019 20.9464 65.4969 20.0374 65.018 18.8934C64.5391 17.7494 64.2997 16.459 64.2997 15.0224C64.2997 13.5857 64.5347 12.2954 65.0047 11.1513C65.4836 10.0073 66.1842 9.10717 67.1065 8.45092C68.0377 7.78579 69.1817 7.45323 70.5385 7.45323C71.8865 7.45323 73.0483 7.78579 74.0238 8.45092C75.0082 9.10717 75.7664 10.0073 76.2985 11.1513C76.8307 12.2865 77.0967 13.5768 77.0967 15.0224C77.0967 16.459 76.8307 17.7538 76.2985 18.9067C75.7753 20.0507 75.0259 20.9553 74.0504 21.6204C73.0838 22.2856 71.9309 22.6181 70.5918 22.6181ZM63.8341 28.6043V7.8523H66.3083V18.1884H66.6276V28.6043H63.8341ZM70.206 20.1039C71.0928 20.1039 71.8245 19.8778 72.4009 19.4255C72.9862 18.9732 73.4208 18.3657 73.7045 17.6031C73.9972 16.8315 74.1435 15.9713 74.1435 15.0224C74.1435 14.0823 73.9972 13.231 73.7045 12.4683C73.4208 11.7056 72.9818 11.0981 72.3876 10.6458C71.7934 10.1935 71.0352 9.9674 70.1129 9.9674C69.2438 9.9674 68.5254 10.1802 67.9579 10.6059C67.3991 11.0316 66.9823 11.6258 66.7074 12.3885C66.4414 13.1511 66.3083 14.0291 66.3083 15.0224C66.3083 16.0156 66.4414 16.8936 66.7074 17.6563C66.9735 18.419 67.3947 19.0176 67.9711 19.4521C68.5476 19.8867 69.2925 20.1039 70.206 20.1039Z" fill="#0C0F1E"/>
<path d="M88.2548 22.219V15.1554C88.2548 14.5967 88.2061 14.0247 88.1085 13.4394C88.0198 12.8452 87.8424 12.2954 87.5764 11.7899C87.3192 11.2844 86.9512 10.8764 86.4723 10.566C86.0023 10.2556 85.3859 10.1004 84.6232 10.1004C84.1266 10.1004 83.6566 10.1847 83.2132 10.3532C82.7697 10.5128 82.3795 10.7744 82.0425 11.138C81.7144 11.5016 81.4528 11.9805 81.2577 12.5747C81.0715 13.1689 80.9783 13.8917 80.9783 14.743L79.249 14.0912C79.249 12.7875 79.4929 11.6391 79.9807 10.6458C80.4684 9.64371 81.169 8.86329 82.0825 8.30459C82.9959 7.74588 84.1 7.46653 85.3948 7.46653C86.3881 7.46653 87.2217 7.62616 87.8957 7.94542C88.5697 8.26468 89.1151 8.68593 89.5319 9.20916C89.9576 9.72353 90.2812 10.2867 90.503 10.8986C90.7247 11.5105 90.8754 12.1091 90.9553 12.6944C91.0351 13.2797 91.075 13.7941 91.075 14.2375V22.219H88.2548ZM78.1582 22.219V3.06339H80.6458V13.3995H80.9783V22.219H78.1582Z" fill="#0C0F1E"/>
<path d="M99.0494 22.6181C97.6216 22.6181 96.3668 22.3077 95.2848 21.6869C94.2117 21.0573 93.3737 20.1838 92.7706 19.0663C92.1764 17.9401 91.8794 16.6364 91.8794 15.1554C91.8794 13.5857 92.172 12.2244 92.7573 11.0715C93.3515 9.91863 94.1763 9.02736 95.2316 8.39771C96.2869 7.76805 97.5152 7.45323 98.9164 7.45323C100.38 7.45323 101.626 7.79466 102.654 8.47752C103.683 9.15152 104.45 10.1137 104.956 11.3642C105.47 12.6146 105.674 14.1001 105.568 15.8205H102.787V14.8095C102.77 13.1423 102.45 11.9096 101.83 11.1114C101.218 10.3133 100.282 9.91419 99.0228 9.91419C97.6305 9.91419 96.584 10.3532 95.8834 11.2311C95.1828 12.1091 94.8325 13.3773 94.8325 15.0357C94.8325 16.6142 95.1828 17.8381 95.8834 18.7072C96.584 19.5674 97.595 19.9975 98.9164 19.9975C99.7855 19.9975 100.535 19.8024 101.165 19.4122C101.803 19.0131 102.3 18.4456 102.654 17.7095L105.381 18.5742C104.823 19.8601 103.976 20.8578 102.841 21.5672C101.706 22.2678 100.442 22.6181 99.0494 22.6181ZM93.928 15.8205V13.6522H104.184V15.8205H93.928Z" fill="#0C0F1E"/>
<path d="M106.69 22.219V7.8523H109.164V11.3376L108.818 10.8853C108.996 10.4241 109.226 10.0029 109.51 9.62154C109.794 9.23133 110.122 8.91207 110.494 8.66376C110.858 8.39771 111.262 8.19373 111.705 8.05184C112.157 7.90108 112.618 7.81239 113.088 7.78579C113.558 7.75031 114.011 7.77249 114.445 7.8523V10.4596C113.975 10.3354 113.452 10.3 112.876 10.3532C112.308 10.4064 111.785 10.5882 111.306 10.8986C110.854 11.1912 110.494 11.546 110.228 11.9628C109.971 12.3796 109.785 12.8452 109.67 13.3596C109.554 13.8651 109.497 14.4016 109.497 14.9692V22.219H106.69Z" fill="#0C0F1E"/>
<path d="M121.228 22.6181C119.8 22.6181 118.546 22.3077 117.464 21.6869C116.391 21.0573 115.553 20.1838 114.95 19.0663C114.355 17.9401 114.058 16.6364 114.058 15.1554C114.058 13.5857 114.351 12.2244 114.936 11.0715C115.53 9.91863 116.355 9.02736 117.41 8.39771C118.466 7.76805 119.694 7.45323 121.095 7.45323C122.559 7.45323 123.805 7.79466 124.833 8.47752C125.862 9.15152 126.629 10.1137 127.135 11.3642C127.649 12.6146 127.853 14.1001 127.747 15.8205H124.966V14.8095C124.949 13.1423 124.629 11.9096 124.009 11.1114C123.397 10.3133 122.461 9.91419 121.202 9.91419C119.809 9.91419 118.763 10.3532 118.062 11.2311C117.362 12.1091 117.011 13.3773 117.011 15.0357C117.011 16.6142 117.362 17.8381 118.062 18.7072C118.763 19.5674 119.774 19.9975 121.095 19.9975C121.964 19.9975 122.714 19.8024 123.343 19.4122C123.982 19.0131 124.479 18.4456 124.833 17.7095L127.56 18.5742C127.002 19.8601 126.155 20.8578 125.02 21.5672C123.884 22.2678 122.621 22.6181 121.228 22.6181ZM116.107 15.8205V13.6522H126.363V15.8205H116.107Z" fill="#0C0F1E"/>
<path d="M129.181 20.081C128.521 21.8423 127.131 23.2321 125.37 23.8926C127.131 24.5531 128.521 25.9428 129.181 27.7042C129.842 25.9428 131.231 24.5531 132.993 23.8926C131.231 23.2321 129.842 21.8423 129.181 20.081Z" fill="#0C0F1E"/>
<path d="M129.181 20.081C128.521 21.8423 127.131 23.2321 125.37 23.8926C127.131 24.5531 128.521 25.9428 129.181 27.7042C129.842 25.9428 131.231 24.5531 132.993 23.8926C131.231 23.2321 129.842 21.8423 129.181 20.081Z" fill="url(#paint0_linear_1755_263)" fill-opacity="0.2"/>
<path d="M129.181 20.081C128.521 21.8423 127.131 23.2321 125.37 23.8926C127.131 24.5531 128.521 25.9428 129.181 27.7042C129.842 25.9428 131.231 24.5531 132.993 23.8926C131.231 23.2321 129.842 21.8423 129.181 20.081Z" fill="url(#paint1_radial_1755_263)" fill-opacity="0.85"/>
<path d="M129.181 20.081C128.521 21.8423 127.131 23.2321 125.37 23.8926C127.131 24.5531 128.521 25.9428 129.181 27.7042C129.842 25.9428 131.231 24.5531 132.993 23.8926C131.231 23.2321 129.842 21.8423 129.181 20.081Z" fill="#F6961C"/>
<path d="M49.6423 1.9006C48.9833 3.65783 47.5968 5.04435 45.8396 5.70331C47.5968 6.36227 48.9833 7.74879 49.6423 9.50602C50.3013 7.74879 51.6878 6.36227 53.445 5.70331C51.6878 5.04435 50.3013 3.65783 49.6423 1.9006Z" fill="#0C0F1E"/>
<path d="M49.6423 1.9006C48.9833 3.65783 47.5968 5.04435 45.8396 5.70331C47.5968 6.36227 48.9833 7.74879 49.6423 9.50602C50.3013 7.74879 51.6878 6.36227 53.445 5.70331C51.6878 5.04435 50.3013 3.65783 49.6423 1.9006Z" fill="url(#paint2_radial_1755_263)" fill-opacity="0.85"/>
<path d="M49.6423 1.9006C48.9833 3.65783 47.5968 5.04435 45.8396 5.70331C47.5968 6.36227 48.9833 7.74879 49.6423 9.50602C50.3013 7.74879 51.6878 6.36227 53.445 5.70331C51.6878 5.04435 50.3013 3.65783 49.6423 1.9006Z" fill="#8C64C5"/>
<defs>
<linearGradient id="paint0_linear_1755_263" x1="129.181" y1="20.081" x2="129.181" y2="27.7042" gradientUnits="userSpaceOnUse">
<stop stop-opacity="0"/>
<stop offset="1"/>
</linearGradient>
<radialGradient id="paint1_radial_1755_263" cx="0" cy="0" r="1" gradientUnits="userSpaceOnUse" gradientTransform="translate(128.532 18.0733) rotate(73.3702) scale(15.5863)">
<stop stop-color="#FCDAAF"/>
<stop offset="0.208936" stop-color="#E99DBC"/>
<stop offset="0.424351" stop-color="#8C64C5"/>
<stop offset="0.696342" stop-color="#252D5A"/>
<stop offset="1" stop-color="#0C0F1E"/>
</radialGradient>
<radialGradient id="paint2_radial_1755_263" cx="0" cy="0" r="1" gradientUnits="userSpaceOnUse" gradientTransform="translate(48.9948 -0.102461) rotate(73.3702) scale(15.5501)">
<stop stop-color="#FCDAAF"/>
<stop offset="0.208936" stop-color="#E99DBC"/>
<stop offset="0.424351" stop-color="#8C64C5"/>
<stop offset="0.696342" stop-color="#252D5A"/>
<stop offset="1" stop-color="#0C0F1E"/>
</radialGradient>
</defs>
</svg>
