<svg width="134" height="29" viewBox="0 0 134 29" fill="none" xmlns="http://www.w3.org/2000/svg">
<path d="M1 1.37888C2.97617 1.37888 5.45332 2.97725 5.45332 9.49329C5.45332 17.5452 6.24341 21.8347 3.98357 22.6093C1.26393 23.5414 -0.543944 18.8099 3.82731 15.3233C8.19856 11.8366 16.6127 7.95762 16.1973 3.09455C15.9491 0.189324 11.649 -0.0826669 11.649 4.78041C11.649 8.28183 11.5998 16.4169 12.2372 18.4766C12.8746 20.5363 14.8078 22.0044 17.3815 22.0044" stroke="#FEF1E0"/>
<path d="M42.774 22.6007C41.5146 22.6007 40.3829 22.3087 39.379 21.7246C38.3933 21.1405 37.6084 20.3099 37.0243 19.233C36.4585 18.1378 36.1755 16.8601 36.1755 15.3998C36.1755 13.8848 36.4676 12.5889 37.0517 11.5119C37.6358 10.435 38.4298 9.60448 39.4337 9.02038C40.4376 8.43628 41.5693 8.14423 42.8288 8.14423C44.1065 8.14423 45.2382 8.43628 46.2239 9.02038C47.2278 9.60448 48.0127 10.435 48.5785 11.5119C49.1626 12.5889 49.4547 13.8848 49.4547 15.3998C49.4547 16.8601 49.1626 18.1378 48.5785 19.233C47.9944 20.3099 47.2004 21.1405 46.1965 21.7246C45.1926 22.3087 44.0518 22.6007 42.774 22.6007ZM42.774 21.5055C43.7232 21.5055 44.5994 21.2773 45.4025 20.821C46.2239 20.3647 46.8901 19.6802 47.4012 18.7675C47.9123 17.8549 48.1678 16.7232 48.1678 15.3725C48.1678 14.0217 47.9123 12.89 47.4012 11.9774C46.9084 11.0647 46.2513 10.3894 45.4299 9.95129C44.6267 9.49496 43.7597 9.26679 42.8288 9.26679C41.8979 9.26679 41.0217 9.49496 40.2004 9.95129C39.379 10.4076 38.7127 11.0921 38.2016 12.0048C37.7088 12.8992 37.4624 14.0217 37.4624 15.3725C37.4624 16.7232 37.7088 17.8549 38.2016 18.7675C38.7127 19.6802 39.3698 20.3647 40.173 20.821C40.9761 21.2773 41.8431 21.5055 42.774 21.5055Z" fill="#FEF1E0"/>
<path d="M32.8203 22.2721V2.55873H34.0524V22.2721H32.8203Z" fill="#FEF1E0"/>
<path d="M23.9751 22.6007C22.7157 22.6007 21.584 22.3087 20.58 21.7246C19.5944 21.1405 18.8095 20.3099 18.2254 19.233C17.6595 18.1378 17.3766 16.8601 17.3766 15.3998C17.3766 13.8848 17.6687 12.5889 18.2528 11.5119C18.8369 10.435 19.6309 9.60448 20.6348 9.02038C21.6387 8.43628 22.7704 8.14423 24.0299 8.14423C25.3076 8.14423 26.4393 8.43628 27.425 9.02038C28.4289 9.60448 29.2138 10.435 29.7796 11.5119C30.3637 12.5889 30.6558 13.8848 30.6558 15.3998C30.6558 16.8601 30.3637 18.1378 29.7796 19.233C29.1955 20.3099 28.4015 21.1405 27.3976 21.7246C26.3937 22.3087 25.2528 22.6007 23.9751 22.6007ZM23.9751 21.5055C24.9243 21.5055 25.8004 21.2773 26.6036 20.821C27.425 20.3647 28.0912 19.6802 28.6023 18.7675C29.1134 17.8549 29.3689 16.7232 29.3689 15.3725C29.3689 14.0217 29.1134 12.89 28.6023 11.9774C28.1095 11.0647 27.4523 10.3894 26.6309 9.95129C25.8278 9.49496 24.9608 9.26679 24.0299 9.26679C23.099 9.26679 22.2228 9.49496 21.4014 9.95129C20.58 10.4076 19.9138 11.0921 19.4027 12.0048C18.9099 12.8992 18.6635 14.0217 18.6635 15.3725C18.6635 16.7232 18.9099 17.8549 19.4027 18.7675C19.9138 19.6802 20.5709 20.3647 21.3741 20.821C22.1772 21.2773 23.0442 21.5055 23.9751 21.5055Z" fill="#FEF1E0"/>
<path d="M56.9327 23.0006C55.1857 23.0006 53.7623 22.6148 52.6626 21.8433C51.5629 21.0718 50.8889 19.9854 50.6406 18.5842L53.4874 18.1452C53.6647 18.8901 54.0727 19.4799 54.7112 19.9144C55.3586 20.3401 56.1612 20.553 57.119 20.553C57.9881 20.553 58.6665 20.3756 59.1543 20.0209C59.6509 19.6661 59.8992 19.1784 59.8992 18.5576C59.8992 18.194 59.8105 17.9013 59.6332 17.6796C59.4647 17.449 59.1055 17.2318 58.5556 17.0278C58.0058 16.8238 57.1677 16.5711 56.0415 16.2695C54.8088 15.9503 53.8288 15.6088 53.1016 15.2452C52.3833 14.8728 51.8689 14.4427 51.5585 13.9549C51.257 13.4583 51.1062 12.8596 51.1062 12.159C51.1062 11.2899 51.3368 10.5317 51.7979 9.88431C52.2591 9.23692 52.9065 8.73586 53.7401 8.38112C54.5826 8.02639 55.567 7.84902 56.6933 7.84902C57.793 7.84902 58.7729 8.02196 59.6332 8.36782C60.4934 8.71369 61.1895 9.20588 61.7216 9.8444C62.2538 10.4741 62.573 11.2146 62.6794 12.0659L59.8327 12.5847C59.7351 11.893 59.4114 11.3476 58.8616 10.9485C58.3118 10.5494 57.5979 10.3322 56.7199 10.2967C55.8774 10.2612 55.1945 10.4031 54.6713 10.7224C54.1481 11.0328 53.8864 11.4629 53.8864 12.0127C53.8864 12.332 53.984 12.6025 54.1791 12.8242C54.3831 13.0459 54.7733 13.2587 55.3497 13.4627C55.9262 13.6667 56.7775 13.9105 57.9038 14.1943C59.1099 14.5047 60.0677 14.8506 60.7772 15.2319C61.4866 15.6044 61.9921 16.0523 62.2937 16.5755C62.604 17.0899 62.7592 17.7151 62.7592 18.4512C62.7592 19.8701 62.2404 20.9831 61.2028 21.7901C60.1741 22.5971 58.7507 23.0006 56.9327 23.0006Z" fill="#FEF1E0"/>
<path d="M70.5847 23.0139C69.2101 23.0139 68.0572 22.6814 67.126 22.0162C66.1948 21.3422 65.4898 20.4332 65.0109 19.2892C64.532 18.1452 64.2926 16.8548 64.2926 15.4182C64.2926 13.9815 64.5276 12.6911 64.9976 11.5471C65.4765 10.4031 66.1771 9.50297 67.0994 8.84671C68.0306 8.18159 69.1746 7.84902 70.5315 7.84902C71.8794 7.84902 73.0412 8.18159 74.0167 8.84671C75.0011 9.50297 75.7594 10.4031 76.2915 11.5471C76.8236 12.6823 77.0896 13.9726 77.0896 15.4182C77.0896 16.8548 76.8236 18.1496 76.2915 19.3025C75.7682 20.4465 75.0189 21.3511 74.0433 22.0162C73.0767 22.6814 71.9238 23.0139 70.5847 23.0139ZM63.827 29.0001V8.2481H66.3013V18.5842H66.6205V29.0001H63.827ZM70.1989 20.4997C71.0857 20.4997 71.8174 20.2736 72.3938 19.8213C72.9791 19.369 73.4137 18.7615 73.6975 17.9989C73.9901 17.2273 74.1365 16.3671 74.1365 15.4182C74.1365 14.4781 73.9901 13.6268 73.6975 12.8641C73.4137 12.1014 72.9747 11.4939 72.3805 11.0416C71.7863 10.5893 71.0281 10.3632 70.1058 10.3632C69.2367 10.3632 68.5183 10.576 67.9508 11.0017C67.3921 11.4274 66.9752 12.0216 66.7003 12.7843C66.4343 13.5469 66.3013 14.4249 66.3013 15.4182C66.3013 16.4114 66.4343 17.2894 66.7003 18.0521C66.9664 18.8148 67.3876 19.4134 67.9641 19.8479C68.5405 20.2825 69.2855 20.4997 70.1989 20.4997Z" fill="#FEF1E0"/>
<path d="M88.2477 22.6148V15.5512C88.2477 14.9925 88.199 14.4205 88.1014 13.8352C88.0127 13.241 87.8354 12.6911 87.5693 12.1857C87.3121 11.6802 86.9441 11.2722 86.4652 10.9618C85.9952 10.6514 85.3788 10.4962 84.6162 10.4962C84.1195 10.4962 83.6495 10.5805 83.2061 10.749C82.7627 10.9086 82.3725 11.1702 82.0355 11.5338C81.7073 11.8974 81.4457 12.3763 81.2506 12.9705C81.0644 13.5647 80.9713 14.2875 80.9713 15.1388L79.2419 14.487C79.2419 13.1833 79.4858 12.0349 79.9736 11.0416C80.4613 10.0395 81.1619 9.25909 82.0754 8.70039C82.9888 8.14168 84.0929 7.86232 85.3877 7.86232C86.381 7.86232 87.2146 8.02195 87.8886 8.34122C88.5626 8.66048 89.108 9.08172 89.5248 9.60496C89.9505 10.1193 90.2742 10.6825 90.4959 11.2944C90.7176 11.9063 90.8684 12.5049 90.9482 13.0902C91.028 13.6755 91.0679 14.1899 91.0679 14.6333V22.6148H88.2477ZM78.1511 22.6148V3.45918H80.6387V13.7953H80.9713V22.6148H78.1511Z" fill="#FEF1E0"/>
<path d="M99.0424 23.0139C97.6146 23.0139 96.3597 22.7035 95.2777 22.0827C94.2047 21.4531 93.3666 20.5796 92.7635 19.4621C92.1694 18.3359 91.8723 17.0322 91.8723 15.5512C91.8723 13.9815 92.1649 12.6202 92.7503 11.4673C93.3444 10.3144 94.1692 9.42316 95.2245 8.7935C96.2799 8.16385 97.5081 7.84902 98.9093 7.84902C100.373 7.84902 101.619 8.19045 102.647 8.87332C103.676 9.54731 104.443 10.5095 104.949 11.76C105.463 13.0104 105.667 14.4959 105.561 16.2163H102.78V15.2053C102.763 13.5381 102.443 12.3054 101.823 11.5072C101.211 10.7091 100.275 10.31 99.0158 10.31C97.6234 10.31 96.5769 10.749 95.8763 11.6269C95.1757 12.5049 94.8254 13.7731 94.8254 15.4315C94.8254 17.01 95.1757 18.2339 95.8763 19.103C96.5769 19.9632 97.5879 20.3933 98.9093 20.3933C99.7784 20.3933 100.528 20.1982 101.157 19.808C101.796 19.4089 102.293 18.8414 102.647 18.1053L105.374 18.9699C104.816 20.2559 103.969 21.2536 102.834 21.963C101.698 22.6636 100.435 23.0139 99.0424 23.0139ZM93.9209 16.2163V14.048H104.177V16.2163H93.9209Z" fill="#FEF1E0"/>
<path d="M106.683 22.6148V8.2481H109.157V11.7334L108.811 11.2811C108.989 10.8199 109.219 10.3987 109.503 10.0173C109.787 9.62713 110.115 9.30787 110.487 9.05955C110.851 8.7935 111.254 8.58953 111.698 8.44764C112.15 8.29688 112.611 8.20819 113.081 8.18159C113.551 8.14611 114.004 8.16828 114.438 8.2481V10.8554C113.968 10.7312 113.445 10.6958 112.868 10.749C112.301 10.8022 111.778 10.984 111.299 11.2944C110.846 11.587 110.487 11.9418 110.221 12.3586C109.964 12.7754 109.778 13.241 109.663 13.7554C109.547 14.2608 109.49 14.7974 109.49 15.365V22.6148H106.683Z" fill="#FEF1E0"/>
<path d="M121.221 23.0139C119.793 23.0139 118.539 22.7035 117.457 22.0827C116.384 21.4531 115.545 20.5796 114.942 19.4621C114.348 18.3359 114.051 17.0322 114.051 15.5512C114.051 13.9815 114.344 12.6202 114.929 11.4673C115.523 10.3144 116.348 9.42316 117.403 8.7935C118.459 8.16385 119.687 7.84902 121.088 7.84902C122.551 7.84902 123.798 8.19045 124.826 8.87332C125.855 9.54731 126.622 10.5095 127.128 11.76C127.642 13.0104 127.846 14.4959 127.739 16.2163H124.959V15.2053C124.942 13.5381 124.622 12.3054 124.001 11.5072C123.39 10.7091 122.454 10.31 121.195 10.31C119.802 10.31 118.756 10.749 118.055 11.6269C117.355 12.5049 117.004 13.7731 117.004 15.4315C117.004 17.01 117.355 18.2339 118.055 19.103C118.756 19.9632 119.767 20.3933 121.088 20.3933C121.957 20.3933 122.707 20.1982 123.336 19.808C123.975 19.4089 124.472 18.8414 124.826 18.1053L127.553 18.9699C126.995 20.2559 126.148 21.2536 125.012 21.963C123.877 22.6636 122.614 23.0139 121.221 23.0139ZM116.1 16.2163V14.048H126.356V16.2163H116.1Z" fill="#FEF1E0"/>
<path d="M129.174 20.4768C128.514 22.2382 127.124 23.6279 125.363 24.2884C127.124 24.9489 128.514 26.3387 129.174 28.1C129.835 26.3387 131.224 24.9489 132.986 24.2884C131.224 23.6279 129.835 22.2382 129.174 20.4768Z" fill="#FEF1E0"/>
<path d="M49.6353 2.29642C48.9763 4.05365 47.5898 5.44016 45.8326 6.09913C47.5898 6.75809 48.9763 8.1446 49.6353 9.90183C50.2942 8.1446 51.6807 6.75809 53.438 6.09913C51.6807 5.44016 50.2942 4.05365 49.6353 2.29642Z" fill="#FEF1E0"/>
</svg>
