<svg width="28" height="32" viewBox="0 0 28 32" fill="none" xmlns="http://www.w3.org/2000/svg">
<g clip-path="url(#clip0_1108_409)">
<path d="M23.8852 2.49077C22.4087 0.807909 19.7398 0.0864258 16.3254 0.0864258H6.41602C6.07819 0.0863737 5.75142 0.206872 5.4945 0.426246C5.23758 0.64562 5.06737 0.94947 5.01449 1.28314L0.888393 27.4518C0.80638 27.9679 1.20596 28.4351 1.72898 28.4351H7.8467L9.38312 18.6899L9.33544 18.995C9.4449 18.3062 10.034 17.7981 10.7317 17.7981H13.6388C19.3498 17.7981 23.8217 15.4784 25.128 8.76807C25.1668 8.5696 25.2003 8.37644 25.2294 8.18772C25.0645 8.10041 25.0645 8.10041 25.2294 8.18772C25.6184 5.70751 25.2267 4.01925 23.8852 2.49077Z" fill="#27346A"/>
<path d="M11.724 7.29427C11.8912 7.2145 12.0742 7.17323 12.2594 7.17347H20.0282C20.9482 7.17347 21.8062 7.23334 22.5903 7.35954C22.8097 7.39455 23.028 7.43632 23.2448 7.48478C23.5522 7.55261 23.8559 7.63561 24.155 7.73347C24.5405 7.86221 24.8995 8.01215 25.2295 8.18772C25.6184 5.70656 25.2267 4.01925 23.8852 2.49077C22.4079 0.807909 19.7398 0.0864258 16.3254 0.0864258H6.41517C5.71743 0.0864258 5.12384 0.594399 5.01449 1.28314L0.888393 27.4509C0.80638 27.9677 1.20596 28.4344 1.72813 28.4344H7.8467L11.0343 8.22036C11.0657 8.02168 11.1448 7.8336 11.265 7.67228C11.3851 7.51096 11.5426 7.38124 11.724 7.29427Z" fill="#27346A"/>
<path d="M25.1279 8.76809C23.8217 15.4775 19.3499 17.7981 13.6388 17.7981H10.7308C10.0331 17.7981 9.4439 18.3062 9.33551 18.9951L7.42409 31.1121C7.35267 31.5637 7.70192 31.973 8.15882 31.973H13.3159C13.6113 31.9729 13.897 31.8674 14.1216 31.6755C14.3462 31.4836 14.495 31.2179 14.5411 30.9261L14.5913 30.6633L15.5633 24.5032L15.6259 24.1627C15.6721 23.871 15.8208 23.6052 16.0454 23.4133C16.27 23.2214 16.5557 23.116 16.8511 23.1159H17.6229C22.6186 23.1159 26.5303 21.0863 27.6734 15.2165C28.1506 12.7635 27.9037 10.7155 26.6415 9.27702C26.2586 8.84131 25.7832 8.48147 25.2293 8.18774C25.1993 8.37741 25.1668 8.56962 25.1279 8.76809Z" fill="#2790C3"/>
<path d="M23.8624 7.64264C23.6587 7.58317 23.4531 7.53051 23.2459 7.48476C23.029 7.43707 22.8107 7.39558 22.5914 7.36036C21.8065 7.23332 20.949 7.17334 20.0282 7.17334H12.2604C12.075 7.17303 11.892 7.21465 11.725 7.29509C11.5434 7.38175 11.3856 7.51138 11.2655 7.67275C11.1453 7.83413 11.0662 8.02237 11.0352 8.22118L9.38411 18.6898L9.33643 18.995C9.44504 18.3062 10.0342 17.7981 10.7319 17.7981H13.6399C19.3509 17.7981 23.8227 15.4784 25.129 8.76804C25.1678 8.56958 25.2005 8.37726 25.2305 8.1877C24.8997 8.01322 24.5416 7.86208 24.156 7.7343C24.0587 7.70204 23.9609 7.67148 23.8625 7.64264" fill="#1F264F"/>
</g>
<defs>
<clipPath id="clip0_1108_409">
<rect width="27.1258" height="32" fill="white" transform="translate(0.874023)"/>
</clipPath>
</defs>
</svg>
