<svg width="79" height="97" viewBox="0 0 79 97" fill="none" xmlns="http://www.w3.org/2000/svg">
<path fill-rule="evenodd" clip-rule="evenodd" d="M39.8784 5.83266C32.5832 5.82632 25.4734 8.13029 19.5685 12.4142C13.6636 16.6981 9.26691 22.7418 7.00896 29.6788C4.75101 36.6157 4.74776 44.0895 6.99968 51.0284C9.2516 57.9673 13.643 64.0149 19.5442 68.3039C25.4454 72.593 32.5532 74.9031 39.8484 74.9031C42.5651 74.9031 46.1993 74.5656 49.8021 73.787C53.4397 73.0009 56.8232 71.8122 59.1908 70.2338L61.7032 68.5589L75.5644 96.5156L71.1195 96.3662L71.2088 93.7112C71.1195 96.3662 71.1195 96.3662 71.1195 96.3662L71.119 96.3662L70.9411 96.3604C70.8226 96.3565 70.6467 96.3508 70.4173 96.3436C69.9586 96.3291 69.2865 96.3084 68.4344 96.2836C66.73 96.2339 64.3062 96.1676 61.4302 96.1014C55.6758 95.9688 48.1222 95.8364 40.9044 95.8364C33.6866 95.8364 26.133 95.9688 20.3786 96.1014C17.5026 96.1676 15.0788 96.2339 13.3744 96.2836C12.5223 96.3084 11.8502 96.3291 11.3915 96.3436C11.1622 96.3508 10.9862 96.3565 10.8677 96.3604L10.6898 96.3662C10.6898 96.3662 10.6893 96.3662 10.6001 93.7112L10.6898 96.3662L6.12739 96.5195L15.2464 79.1326L19.9516 81.6004L15.0634 90.9206C16.5265 90.8805 18.2858 90.8351 20.2562 90.7897C26.0307 90.6566 33.6293 90.5233 40.9044 90.5233C48.1795 90.5233 55.7781 90.6566 61.5526 90.7897C63.5755 90.8363 65.3758 90.8829 66.8616 90.9238L59.5301 76.1368C56.8727 77.4305 53.8481 78.3484 50.9244 78.9803C46.9539 79.8383 42.9435 80.2162 39.8484 80.2162C31.4308 80.2162 23.2295 77.5507 16.4205 72.6018C9.61142 67.6529 4.54441 60.675 1.94604 52.6685C-0.652333 44.6621 -0.648585 36.0385 1.95675 28.0343C4.56207 20.0301 9.63515 13.0566 16.4485 8.11361C23.2619 3.17066 31.4655 0.51223 39.883 0.519546C48.3005 0.526863 56.4995 3.19955 63.3043 8.15434C70.0434 13.0614 75.4926 19.9558 77.7927 28.2045C79.5823 34.622 79.6949 44.7147 76.0121 52.5131C72.8303 59.2504 65.3895 63.2527 58.5605 63.6651C55.0924 63.8745 51.5439 63.1792 48.6377 61.219C45.6708 59.2178 43.5972 56.044 42.9394 51.784C42.697 50.2138 42.4682 46.9412 42.288 43.3048C41.1381 44.0537 39.9855 44.7795 38.873 45.4779C38.7474 45.5567 38.6224 45.6352 38.498 45.7132C37.796 46.1537 37.114 46.5817 36.4576 46.9985C36.5189 49.2635 36.5632 51.3027 36.4895 53.0296C36.4143 54.7924 36.2105 56.5216 35.6075 57.9638C34.9422 59.5553 33.7666 60.8365 31.9406 61.4094C30.0382 62.0062 28.1205 61.7209 26.5928 60.6599C25.108 59.6286 24.1907 58.0092 23.8768 56.2512C23.2359 52.6621 25.0065 48.5355 29.3133 45.3913C29.8649 44.9885 30.4529 44.58 31.0664 44.1675C31.0233 42.4294 30.9875 40.5251 30.9875 38.4648C30.9875 33.7083 29.9917 31.2247 29.0233 29.9823C28.1247 28.8297 27.0568 28.4946 26.0731 28.4946V23.1814C28.4491 23.1814 31.1665 24.0899 33.2136 26.7158C35.1906 29.2519 36.3006 33.0817 36.3006 38.4648C36.3006 39.2708 36.3062 40.0522 36.3157 40.81C38.2696 39.5825 40.2251 38.3404 42.0365 37.0686C41.9553 34.4981 41.9084 32.1228 41.9084 30.421C41.9084 25.7367 44.3285 22.4683 47.8884 21.9476C51.1513 21.4704 54.5786 23.6544 54.9422 27.5508C55.2065 30.382 53.9999 32.8863 52.3857 34.9488C51.0585 36.6446 49.3168 38.2236 47.4458 39.6806C47.6327 44.4235 47.9123 49.1728 48.1903 50.9733C48.6374 53.8687 49.9499 55.6953 51.6087 56.8142C53.3283 57.974 55.645 58.5184 58.2402 58.3616C63.5375 58.0417 69.0144 54.8886 71.2077 50.2442C74.2347 43.8347 74.1983 35.0947 72.6749 29.6316C70.7545 22.745 66.1398 16.7914 60.1768 12.4495C54.2794 8.15532 47.1735 5.839 39.8784 5.83266ZM47.244 32.7749C47.5969 32.4048 47.917 32.0379 48.2017 31.6742C49.3759 30.1738 49.741 28.997 49.6521 28.0445C49.5938 27.4201 49.155 27.132 48.6573 27.2048C48.4355 27.2373 48.1414 27.3606 47.8642 27.7427C47.5756 28.1406 47.2215 28.9481 47.2215 30.421C47.2215 31.1113 47.2293 31.9063 47.244 32.7749ZM31.2144 50.706C29.2124 52.6185 28.9424 54.3945 29.1071 55.3173C29.2106 55.8969 29.4641 56.1853 29.6237 56.2961C29.7404 56.3772 29.9407 56.4683 30.3501 56.3399C30.3563 56.3379 30.3624 56.3361 30.3686 56.3343C30.4579 56.3078 30.5529 56.2797 30.7056 55.9144C30.9313 55.3745 31.112 54.4259 31.1812 52.8031C31.2084 52.166 31.2175 51.4694 31.2144 50.706Z" fill="url(#paint0_radial_2039_205)"/>
<defs>
<radialGradient id="paint0_radial_2039_205" cx="0" cy="0" r="1" gradientUnits="userSpaceOnUse" gradientTransform="translate(1.9612e-06 122.735) rotate(-38.2958) scale(701.865 551.609)">
<stop stop-color="#FCDAAF"/>
<stop offset="0.130558" stop-color="#E99DBC"/>
<stop offset="0.268817" stop-color="#8C64C5"/>
<stop offset="0.563283" stop-color="#252D5A"/>
<stop offset="1" stop-color="#0C0F1E"/>
</radialGradient>
</defs>
</svg>
