<svg width="476" height="579" viewBox="0 0 476 579" fill="none" xmlns="http://www.w3.org/2000/svg">
<path d="M157.035 152.489C177.269 152.489 202.633 167.47 202.633 228.539C202.633 304.003 210.723 344.205 187.584 351.464C159.737 360.201 141.226 315.856 185.984 283.179C230.742 250.502 319.232 209.87 314.978 164.292C312.437 137.064 268.408 134.515 268.408 180.092C268.408 212.908 271.321 286.178 274.431 306.317C287.739 392.51 410.968 374.867 443.342 306.317C463.548 263.531 463.099 206.818 453.122 171.04C440.413 125.461 410.106 86.7703 371.854 58.9178C333.603 31.0653 287.513 16.0412 240.196 16.0001C192.878 15.959 146.763 30.9029 108.463 58.6888C70.1624 86.4748 41.6449 125.676 26.9995 170.67C12.3541 215.664 12.333 264.14 26.9393 309.147C41.5456 354.154 70.029 393.379 108.305 421.199C146.581 449.018 192.683 464.002 240.001 464.002C275.005 464.002 332.085 455.384 365.373 433.192L428.88 561.28C428.88 561.28 333.65 558.08 246.361 558.08C159.072 558.08 63.8426 561.28 63.8426 561.28L105.996 480.907" stroke="white" stroke-width="32"/>
</svg>
