{
  "accessors": [
    {
      "bufferView": 2,
      "componentType": 5126,
      "count": 680,
      "max": [
        7.076407432556152,
        6.255212306976318,
        31.785175323486328
      ],
      "min": [
        -6.374475002288818,
        -7.000053405761719,
        -1.0
      ],
      "type": "VEC3"
    },
    {
      "bufferView": 2,
      "byteOffset": 8160,
      "componentType": 5126,
      "count": 680,
      "max": [
        0.9972891211509705,
        0.9980159997940063,
        0.9978309869766235
      ],
      "min": [
        -0.9901027083396912,
        -0.9945509433746338,
        -0.9991600513458252
      ],
      "type": "VEC3"
    },
    {
      "bufferView": 1,
      "componentType": 5126,
      "count": 680,
      "max": [
        1.0,
        1.0
      ],
      "min": [
        -8.940696716308594e-08,
        0.01000000536441803
      ],
      "type": "VEC2"
    },
    {
      "bufferView": 0,
      "componentType": 5125,
      "count": 2952,
      "type": "SCALAR"
    },
    {
      "bufferView": 2,
      "byteOffset": 16320,
      "componentType": 5126,
      "count": 64,
      "max": [
        7.871212482452393,
        7.967856407165527,
        35.49577331542969
      ],
      "min": [
        -8.240865707397461,
        -9.38554859161377,
        5.795560836791992
      ],
      "type": "VEC3"
    },
    {
      "bufferView": 2,
      "byteOffset": 17088,
      "componentType": 5126,
      "count": 64,
      "max": [
        0.9868514537811279,
        0.978900134563446,
        0.3238086402416229
      ],
      "min": [
        -0.994926393032074,
        -0.9993917942047119,
        -0.27229824662208557
      ],
      "type": "VEC3"
    },
    {
      "bufferView": 1,
      "byteOffset": 5440,
      "componentType": 5126,
      "count": 64,
      "max": [
        1.0,
        1.0
      ],
      "min": [
        0.0,
        0.0
      ],
      "type": "VEC2"
    },
    {
      "bufferView": 0,
      "byteOffset": 11808,
      "componentType": 5125,
      "count": 96,
      "type": "SCALAR"
    },
    {
      "bufferView": 2,
      "byteOffset": 17856,
      "componentType": 5126,
      "count": 956,
      "max": [
        7.580275058746338,
        10.240139961242676,
        33.61231231689453
      ],
      "min": [
        -9.942249298095703,
        -8.095394134521484,
        11.94448471069336
      ],
      "type": "VEC3"
    },
    {
      "bufferView": 2,
      "byteOffset": 29328,
      "componentType": 5126,
      "count": 956,
      "max": [
        0.27917638421058655,
        0.9944410920143127,
        0.9938737154006958
      ],
      "min": [
        0.024668214842677116,
        -0.9938616752624512,
        -0.9970422983169556
      ],
      "type": "VEC3"
    },
    {
      "bufferView": 1,
      "byteOffset": 5952,
      "componentType": 5126,
      "count": 956,
      "max": [
        0.9998999238014221,
        0.9999000430107117
      ],
      "min": [
        9.997999586630613e-05,
        9.997999586630613e-05
      ],
      "type": "VEC2"
    },
    {
      "bufferView": 0,
      "byteOffset": 12192,
      "componentType": 5125,
      "count": 1434,
      "type": "SCALAR"
    }
  ],
  "asset": {
    "extras": {
      "author": "herrausberg (https://sketchfab.com/herrausberg)",
      "license": "CC-BY-4.0 (http://creativecommons.org/licenses/by/4.0/)",
      "source": "https://sketchfab.com/3d-models/winter-tree-with-leaves-d6cc11d2bcf94cee96cfb12ecb9d2b3f",
      "title": "Winter tree  with leaves"
    },
    "generator": "Sketchfab-13.81.0",
    "version": "2.0"
  },
  "bufferViews": [
    {
      "buffer": 0,
      "byteLength": 17928,
      "name": "floatBufferViews",
      "target": 34963
    },
    {
      "buffer": 0,
      "byteLength": 13600,
      "byteOffset": 17928,
      "byteStride": 8,
      "name": "floatBufferViews",
      "target": 34962
    },
    {
      "buffer": 0,
      "byteLength": 40800,
      "byteOffset": 31528,
      "byteStride": 12,
      "name": "floatBufferViews",
      "target": 34962
    }
  ],
  "buffers": [
    {
      "byteLength": 72328,
      "uri": "scene.bin"
    }
  ],
  "images": [
    {
      "uri": "textures/Branches_baseColor.png"
    },
    {
      "uri": "textures/Leaves_baseColor.png"
    }
  ],
  "materials": [
    {
      "doubleSided": true,
      "name": "Root",
      "pbrMetallicRoughness": {
        "baseColorFactor": [
          0.0732222,
          0.0340151,
          0.00796548,
          1.0
        ],
        "metallicFactor": 0.0,
        "roughnessFactor": 0.9944519040728764
      }
    },
    {
      "alphaCutoff": 0.18102596069690272,
      "alphaMode": "MASK",
      "doubleSided": true,
      "name": "Branches",
      "pbrMetallicRoughness": {
        "baseColorTexture": {
          "index": 0
        },
        "metallicFactor": 0.0,
        "roughnessFactor": 0.8211145618000169
      }
    },
    {
      "alphaCutoff": 0.029908636984705667,
      "alphaMode": "MASK",
      "doubleSided": true,
      "name": "Leaves",
      "pbrMetallicRoughness": {
        "baseColorTexture": {
          "index": 1
        },
        "metallicFactor": 0.0,
        "roughnessFactor": 0.8211145618000169
      }
    }
  ],
  "meshes": [
    {
      "name": "Tree4_Root_0",
      "primitives": [
        {
          "attributes": {
            "NORMAL": 1,
            "POSITION": 0,
            "TEXCOORD_0": 2
          },
          "indices": 3,
          "material": 0,
          "mode": 4
        }
      ]
    },
    {
      "name": "Tree4_Branches_0",
      "primitives": [
        {
          "attributes": {
            "NORMAL": 5,
            "POSITION": 4,
            "TEXCOORD_0": 6
          },
          "indices": 7,
          "material": 1,
          "mode": 4
        }
      ]
    },
    {
      "name": "Tree4_Leaves_0",
      "primitives": [
        {
          "attributes": {
            "NORMAL": 9,
            "POSITION": 8,
            "TEXCOORD_0": 10
          },
          "indices": 11,
          "material": 2,
          "mode": 4
        }
      ]
    }
  ],
  "nodes": [
    {
      "children": [
        1
      ],
      "matrix": [
        1.0,
        0.0,
        0.0,
        0.0,
        0.0,
        2.220446049250313e-16,
        -1.0,
        0.0,
        0.0,
        1.0,
        2.220446049250313e-16,
        0.0,
        0.0,
        0.0,
        0.0,
        1.0
      ],
      "name": "Sketchfab_model"
    },
    {
      "children": [
        2
      ],
      "matrix": [
        0.009999999776482582,
        0.0,
        0.0,
        0.0,
        0.0,
        0.0,
        0.009999999776482582,
        0.0,
        0.0,
        -0.009999999776482582,
        0.0,
        0.0,
        0.0,
        0.0,
        0.0,
        1.0
      ],
      "name": "snt2_treeType4.fbx"
    },
    {
      "children": [
        3
      ],
      "name": "RootNode"
    },
    {
      "children": [
        4,
        5,
        6
      ],
      "matrix": [
        27.090343475341797,
        0.0,
        0.0,
        0.0,
        0.0,
        -4.413577163960753e-06,
        -27.090343475341438,
        0.0,
        0.0,
        27.090343475341438,
        -4.413577163960753e-06,
        0.0,
        0.0,
        0.0,
        0.0,
        1.0
      ],
      "name": "Tree4"
    },
    {
      "mesh": 0,
      "name": "Tree4_Root_0"
    },
    {
      "mesh": 1,
      "name": "Tree4_Branches_0"
    },
    {
      "mesh": 2,
      "name": "Tree4_Leaves_0"
    }
  ],
  "samplers": [
    {
      "magFilter": 9729,
      "minFilter": 9987,
      "wrapS": 10497,
      "wrapT": 10497
    }
  ],
  "scene": 0,
  "scenes": [
    {
      "name": "Sketchfab_Scene",
      "nodes": [
        0
      ]
    }
  ],
  "textures": [
    {
      "sampler": 0,
      "source": 0
    },
    {
      "sampler": 0,
      "source": 1
    }
  ]
}
