<svg width="152" height="36" viewBox="0 0 152 36" fill="none" xmlns="http://www.w3.org/2000/svg">
<path fill-rule="evenodd" clip-rule="evenodd" d="M14.8184 2.29187C12.1076 2.28952 9.46568 3.14565 7.27147 4.73751C5.07726 6.32936 3.4435 8.57517 2.60446 11.1529C1.76543 13.7306 1.76422 16.5078 2.60102 19.0862C3.43781 21.6646 5.06962 23.9119 7.26244 25.5056C9.45526 27.0994 12.0965 27.9578 14.8073 27.9578C15.8168 27.9578 17.1672 27.8324 18.506 27.5431C19.8577 27.251 21.115 26.8093 21.9948 26.2227L22.9283 25.6003L28.079 35.9888L26.4274 35.9333L26.4605 34.9467C26.4274 35.9333 26.4274 35.9333 26.4274 35.9333L26.361 35.9311C26.317 35.9297 26.2516 35.9276 26.1664 35.9249C25.996 35.9195 25.7462 35.9118 25.4296 35.9026C24.7963 35.8841 23.8956 35.8595 22.8269 35.8349C20.6886 35.7856 17.8818 35.7364 15.1997 35.7364C12.5176 35.7364 9.71079 35.7856 7.57249 35.8349C6.50381 35.8595 5.60313 35.8841 4.96982 35.9026C4.65318 35.9118 4.40343 35.9195 4.23298 35.9249C4.14775 35.9276 4.08236 35.9297 4.03835 35.9311L3.97225 35.9333C3.97225 35.9333 3.97204 35.9333 3.93888 34.9467L3.97225 35.9333L2.27688 35.9903L5.66542 29.5295L7.41384 30.4465L5.59742 33.9098C6.1411 33.8949 6.79483 33.878 7.52701 33.8611C9.67275 33.8117 12.4963 33.7621 15.1997 33.7621C17.9031 33.7621 20.7266 33.8117 22.8724 33.8611C23.6241 33.8784 24.293 33.8958 24.8451 33.911L22.1208 28.4162C21.1334 28.897 20.0094 29.2381 18.923 29.4728C17.4476 29.7917 15.9574 29.9321 14.8073 29.9321C11.6794 29.9321 8.63188 28.9416 6.1017 27.1027C3.57152 25.2637 1.68866 22.6708 0.72313 19.6957C-0.242401 16.7205 -0.241008 13.5161 0.727108 10.5418C1.69522 7.56752 3.58033 4.97621 6.11211 3.13946C8.64389 1.3027 11.6923 0.314853 14.8202 0.317572C17.948 0.32029 20.9947 1.31344 23.5233 3.15459C26.0275 4.978 28.0523 7.53992 28.9071 10.605C29.572 12.9897 29.6139 16.7401 28.2454 19.6379C27.0631 22.1414 24.2981 23.6286 21.7605 23.7819C20.4718 23.8597 19.1532 23.6013 18.0733 22.8729C16.9709 22.1293 16.2003 20.95 15.9559 19.367C15.8658 18.7835 15.7808 17.5674 15.7138 16.2162C15.2865 16.4945 14.8583 16.7642 14.4448 17.0237C14.3982 17.053 14.3517 17.0821 14.3055 17.1111C14.0446 17.2748 13.7912 17.4338 13.5473 17.5887C13.5701 18.4304 13.5865 19.1881 13.5592 19.8298C13.5312 20.4848 13.4555 21.1274 13.2314 21.6633C12.9842 22.2547 12.5474 22.7308 11.8688 22.9437C11.1619 23.1654 10.4493 23.0594 9.88165 22.6652C9.32989 22.282 8.98903 21.6802 8.87238 21.027C8.63424 19.6933 9.2922 18.1599 10.8925 16.9915C11.0975 16.8418 11.316 16.69 11.544 16.5367C11.528 15.8909 11.5147 15.1833 11.5147 14.4177C11.5147 12.6502 11.1447 11.7273 10.7848 11.2657C10.4509 10.8374 10.0541 10.7128 9.68853 10.7128V8.73852C10.5714 8.73852 11.5812 9.07609 12.3419 10.0519C13.0765 10.9943 13.489 12.4174 13.489 14.4177C13.489 14.7172 13.491 15.0076 13.4946 15.2891C14.2206 14.833 14.9473 14.3715 15.6204 13.8989C15.5902 12.9437 15.5728 12.0611 15.5728 11.4287C15.5728 9.68805 16.472 8.47354 17.7949 8.28006C19.0073 8.10272 20.2809 8.91426 20.416 10.3621C20.5142 11.4142 20.0659 12.3448 19.466 13.1111C18.9729 13.7413 18.3257 14.3281 17.6304 14.8695C17.6999 16.6319 17.8038 18.3967 17.9071 19.0657C18.0732 20.1416 18.5609 20.8204 19.1773 21.2361C19.8163 21.6671 20.6772 21.8694 21.6415 21.8112C23.6099 21.6923 25.6451 20.5206 26.4601 18.7948C27.5849 16.4131 27.5714 13.1654 27.0053 11.1353C26.2917 8.57634 24.5769 6.36404 22.3611 4.75062C20.1697 3.15496 17.5293 2.29423 14.8184 2.29187ZM17.5554 12.3034C17.6866 12.1658 17.8055 12.0295 17.9113 11.8943C18.3476 11.3368 18.4833 10.8995 18.4503 10.5456C18.4286 10.3136 18.2656 10.2065 18.0806 10.2336C17.9982 10.2456 17.8889 10.2915 17.7859 10.4335C17.6786 10.5813 17.5471 10.8814 17.5471 11.4287C17.5471 11.6852 17.55 11.9806 17.5554 12.3034ZM11.599 18.9664C10.8551 19.6771 10.7547 20.337 10.8159 20.6799C10.8544 20.8953 10.9486 21.0024 11.0079 21.0436C11.0513 21.0738 11.1257 21.1076 11.2778 21.0599C11.2801 21.0592 11.2824 21.0585 11.2847 21.0578C11.3179 21.048 11.3532 21.0375 11.4099 20.9018C11.4938 20.7012 11.5609 20.3487 11.5867 19.7457C11.5968 19.5089 11.6001 19.2501 11.599 18.9664Z" fill="#0C0F1E"/>
<path d="M38.2879 26.6646V9.60661H39.283V17.6381H49.6125V9.60661H50.6076V26.6646H49.6125V18.6331H39.283V26.6646H38.2879Z" fill="#0C0F1E"/>
<path d="M58.5954 27.02C57.3318 27.02 56.2657 26.7317 55.397 26.1552C54.5283 25.5787 53.8689 24.7811 53.4187 23.7624C52.9686 22.7436 52.7435 21.5709 52.7435 20.2442C52.7435 18.9016 52.9725 17.7249 53.4306 16.7141C53.8886 15.7033 54.552 14.9175 55.4207 14.3568C56.2973 13.7961 57.3555 13.5157 58.5954 13.5157C59.8668 13.5157 60.9369 13.804 61.8056 14.3805C62.6743 14.9491 63.3298 15.7388 63.772 16.7496C64.2221 17.7605 64.4472 18.9253 64.4472 20.2442C64.4472 21.5946 64.2221 22.7792 63.772 23.7979C63.3219 24.8088 62.6585 25.5985 61.7819 26.1671C60.9132 26.7357 59.851 27.02 58.5954 27.02ZM58.5954 26.0249C60.2064 26.0249 61.4068 25.4919 62.1965 24.4257C62.9862 23.3517 63.3811 21.9579 63.3811 20.2442C63.3811 18.4989 62.9823 17.109 62.1847 16.0744C61.3949 15.032 60.1985 14.5108 58.5954 14.5108C57.5135 14.5108 56.6171 14.7556 55.9064 15.2452C55.2035 15.7348 54.6783 16.4101 54.3309 17.2709C53.9834 18.1317 53.8097 19.1228 53.8097 20.2442C53.8097 21.9815 54.2124 23.3794 55.0179 24.4376C55.8313 25.4958 57.0238 26.0249 58.5954 26.0249Z" fill="#0C0F1E"/>
<path d="M66.8215 26.6646V9.25123H67.8166V26.6646H66.8215Z" fill="#0C0F1E"/>
<path d="M76.0411 27.02C74.7776 27.02 73.7114 26.7317 72.8428 26.1552C71.9741 25.5787 71.3146 24.7811 70.8645 23.7624C70.4144 22.7436 70.1893 21.5709 70.1893 20.2442C70.1893 18.9016 70.4183 17.7249 70.8763 16.7141C71.3344 15.7033 71.9977 14.9175 72.8664 14.3568C73.743 13.7961 74.8013 13.5157 76.0411 13.5157C77.3126 13.5157 78.3826 13.804 79.2513 14.3805C80.12 14.9491 80.7755 15.7388 81.2178 16.7496C81.6679 17.7605 81.893 18.9253 81.893 20.2442C81.893 21.5946 81.6679 22.7792 81.2178 23.7979C80.7676 24.8088 80.1042 25.5985 79.2276 26.1671C78.3589 26.7357 77.2968 27.02 76.0411 27.02ZM76.0411 26.0249C77.6521 26.0249 78.8525 25.4919 79.6423 24.4257C80.432 23.3517 80.8268 21.9579 80.8268 20.2442C80.8268 18.4989 80.428 17.109 79.6304 16.0744C78.8407 15.032 77.6442 14.5108 76.0411 14.5108C74.9592 14.5108 74.0629 14.7556 73.3521 15.2452C72.6493 15.7348 72.1241 16.4101 71.7766 17.2709C71.4291 18.1317 71.2554 19.1228 71.2554 20.2442C71.2554 21.9815 71.6582 23.3794 72.4637 24.4376C73.2771 25.4958 74.4696 26.0249 76.0411 26.0249Z" fill="#0C0F1E"/>
<path d="M88.9227 27.0081C87.367 27.0081 86.0995 26.6646 85.1202 25.9775C84.1409 25.2905 83.5408 24.3231 83.3196 23.0753L85.8546 22.6844C86.0126 23.3478 86.3759 23.8729 86.9445 24.2599C87.521 24.639 88.2356 24.8285 89.0885 24.8285C89.8625 24.8285 90.4666 24.6705 90.901 24.3547C91.3432 24.0388 91.5643 23.6044 91.5643 23.0516C91.5643 22.7278 91.4854 22.4672 91.3274 22.2698C91.1774 22.0645 90.8575 21.871 90.3679 21.6893C89.8783 21.5077 89.132 21.2826 88.129 21.0141C87.0313 20.7298 86.1587 20.4258 85.5111 20.102C84.8714 19.7703 84.4134 19.3873 84.137 18.953C83.8685 18.5107 83.7342 17.9777 83.7342 17.3538C83.7342 16.5799 83.9396 15.9046 84.3502 15.3281C84.7609 14.7516 85.3374 14.3054 86.0797 13.9896C86.8299 13.6737 87.7065 13.5157 88.7095 13.5157C89.6887 13.5157 90.5614 13.6697 91.3274 13.9777C92.0934 14.2857 92.7134 14.724 93.1872 15.2926C93.661 15.8533 93.9453 16.5127 94.0401 17.2709L91.5051 17.7328C91.4182 17.1169 91.13 16.6312 90.6404 16.2758C90.1507 15.9204 89.515 15.7269 88.7332 15.6954C87.9829 15.6638 87.3749 15.7901 86.9089 16.0744C86.443 16.3508 86.21 16.7338 86.21 17.2235C86.21 17.5078 86.2969 17.7486 86.4706 17.9461C86.6523 18.1435 86.9997 18.333 87.5131 18.5147C88.0264 18.6963 88.7845 18.9135 89.7875 19.1662C90.8615 19.4426 91.7144 19.7506 92.3461 20.0902C92.9779 20.4218 93.4281 20.8207 93.6966 21.2866C93.973 21.7446 94.1112 22.3014 94.1112 22.9569C94.1112 24.2204 93.6492 25.2115 92.7252 25.9302C91.8091 26.6488 90.5416 27.0081 88.9227 27.0081Z" fill="#0C0F1E"/>
<path d="M101.08 27.02C99.8556 27.02 98.829 26.7238 97.9998 26.1315C97.1705 25.5313 96.5427 24.7219 96.1163 23.7031C95.6898 22.6844 95.4766 21.5354 95.4766 20.256C95.4766 18.9767 95.6859 17.8276 96.1044 16.8089C96.5309 15.7901 97.1548 14.9886 97.9761 14.4042C98.8053 13.8119 99.824 13.5157 101.032 13.5157C102.233 13.5157 103.267 13.8119 104.136 14.4042C105.012 14.9886 105.688 15.7901 106.162 16.8089C106.635 17.8197 106.872 18.9688 106.872 20.256C106.872 21.5354 106.635 22.6883 106.162 23.715C105.696 24.7337 105.028 25.5392 104.16 26.1315C103.299 26.7238 102.272 27.02 101.08 27.02ZM95.062 32.3506V13.8711H97.2653V23.0753H97.5496V32.3506H95.062ZM100.736 24.7811C101.526 24.7811 102.177 24.5797 102.691 24.177C103.212 23.7742 103.599 23.2333 103.852 22.5541C104.112 21.867 104.243 21.101 104.243 20.256C104.243 19.4189 104.112 18.6608 103.852 17.9816C103.599 17.3024 103.208 16.7615 102.679 16.3587C102.15 15.956 101.475 15.7546 100.653 15.7546C99.8793 15.7546 99.2396 15.9441 98.7342 16.3232C98.2367 16.7023 97.8655 17.2314 97.6207 17.9105C97.3838 18.5897 97.2653 19.3715 97.2653 20.256C97.2653 21.1405 97.3838 21.9223 97.6207 22.6015C97.8576 23.2806 98.2327 23.8137 98.746 24.2007C99.2594 24.5876 99.9227 24.7811 100.736 24.7811Z" fill="#0C0F1E"/>
<path d="M116.809 26.6646V20.3745C116.809 19.8769 116.765 19.3676 116.678 18.8463C116.599 18.3172 116.441 17.8276 116.204 17.3775C115.975 16.9273 115.648 16.5641 115.221 16.2877C114.803 16.0113 114.254 15.873 113.575 15.873C113.132 15.873 112.714 15.9481 112.319 16.0981C111.924 16.2403 111.577 16.4732 111.277 16.797C110.984 17.1208 110.751 17.5473 110.578 18.0764C110.412 18.6055 110.329 19.2491 110.329 20.0072L108.789 19.4268C108.789 18.2659 109.006 17.2432 109.44 16.3587C109.875 15.4663 110.499 14.7714 111.312 14.2739C112.125 13.7763 113.109 13.5276 114.262 13.5276C115.146 13.5276 115.889 13.6697 116.489 13.954C117.089 14.2383 117.575 14.6134 117.946 15.0794C118.325 15.5374 118.613 16.0389 118.81 16.5838C119.008 17.1287 119.142 17.6618 119.213 18.183C119.284 18.7042 119.32 19.1622 119.32 19.5571V26.6646H116.809ZM107.818 26.6646V9.60661H110.033V18.8108H110.329V26.6646H107.818Z" fill="#0C0F1E"/>
<path d="M126.421 27.02C125.15 27.02 124.032 26.7436 123.069 26.1908C122.113 25.6301 121.367 24.8522 120.83 23.8571C120.301 22.8542 120.036 21.6933 120.036 20.3745C120.036 18.9767 120.297 17.7644 120.818 16.7378C121.347 15.7112 122.082 14.9175 123.021 14.3568C123.961 13.7961 125.055 13.5157 126.303 13.5157C127.606 13.5157 128.715 13.8198 129.631 14.4279C130.547 15.028 131.23 15.8849 131.681 16.9984C132.139 18.1119 132.32 19.4347 132.225 20.9668H129.75V20.0665C129.734 18.5818 129.45 17.4841 128.897 16.7733C128.352 16.0626 127.519 15.7072 126.397 15.7072C125.157 15.7072 124.226 16.0981 123.602 16.8799C122.978 17.6618 122.666 18.7911 122.666 20.2678C122.666 21.6736 122.978 22.7634 123.602 23.5373C124.226 24.3033 125.126 24.6863 126.303 24.6863C127.077 24.6863 127.744 24.5126 128.305 24.1651C128.873 23.8098 129.315 23.3043 129.631 22.6489L132.06 23.4188C131.562 24.5639 130.808 25.4524 129.797 26.0841C128.786 26.708 127.661 27.02 126.421 27.02ZM121.86 20.9668V19.0359H130.994V20.9668H121.86Z" fill="#0C0F1E"/>
<path d="M133.225 26.6646V13.8711H135.428V16.9747L135.12 16.572C135.278 16.1613 135.483 15.7862 135.736 15.4466C135.989 15.0991 136.281 14.8148 136.613 14.5937C136.936 14.3568 137.296 14.1751 137.691 14.0488C138.093 13.9145 138.504 13.8356 138.923 13.8119C139.341 13.7803 139.744 13.8 140.131 13.8711V16.1929C139.712 16.0823 139.246 16.0507 138.733 16.0981C138.228 16.1455 137.762 16.3074 137.335 16.5838C136.933 16.8444 136.613 17.1603 136.376 17.5315C136.147 17.9026 135.981 18.3172 135.878 18.7753C135.776 19.2254 135.724 19.7032 135.724 20.2086V26.6646H133.225Z" fill="#0C0F1E"/>
<path d="M146.171 27.02C144.9 27.02 143.782 26.7436 142.819 26.1908C141.863 25.6301 141.117 24.8522 140.58 23.8571C140.051 22.8542 139.786 21.6933 139.786 20.3745C139.786 18.9767 140.047 17.7644 140.568 16.7378C141.097 15.7112 141.832 14.9175 142.771 14.3568C143.711 13.7961 144.805 13.5157 146.053 13.5157C147.356 13.5157 148.465 13.8198 149.381 14.4279C150.297 15.028 150.981 15.8849 151.431 16.9984C151.889 18.1119 152.07 19.4347 151.976 20.9668H149.5V20.0665C149.484 18.5818 149.2 17.4841 148.647 16.7733C148.102 16.0626 147.269 15.7072 146.147 15.7072C144.908 15.7072 143.976 16.0981 143.352 16.8799C142.728 17.6618 142.416 18.7911 142.416 20.2678C142.416 21.6736 142.728 22.7634 143.352 23.5373C143.976 24.3033 144.876 24.6863 146.053 24.6863C146.827 24.6863 147.494 24.5126 148.055 24.1651C148.623 23.8098 149.066 23.3043 149.381 22.6489L151.81 23.4188C151.312 24.5639 150.558 25.4524 149.547 26.0841C148.536 26.708 147.411 27.02 146.171 27.02ZM141.611 20.9668V19.0359H150.744V20.9668H141.611Z" fill="#0C0F1E"/>
</svg>
