{
  "accessors": [
    {
      "bufferView": 2,
      "componentType": 5126,
      "count": 19268,
      "max": [
        1.2337008714675903,
        1.5846277475357056,
        0.823581337928772
      ],
      "min": [
        -1.9985151290893555,
        -2.4439778327941895,
        -0.8235520720481873
      ],
      "type": "VEC3"
    },
    {
      "bufferView": 2,
      "byteOffset": 231216,
      "componentType": 5126,
      "count": 19268,
      "max": [
        0.9999533891677856,
        1.0,
        0.9999426007270813
      ],
      "min": [
        -0.9999174475669861,
        -1.0,
        -0.9999427199363708
      ],
      "type": "VEC3"
    },
    {
      "bufferView": 1,
      "componentType": 5126,
      "count": 19268,
      "max": [
        0.0,
        0.0
      ],
      "min": [
        0.0,
        0.0
      ],
      "type": "VEC2"
    },
    {
      "bufferView": 0,
      "componentType": 5125,
      "count": 115584,
      "type": "SCALAR"
    },
    {
      "bufferView": 2,
      "byteOffset": 462432,
      "componentType": 5126,
      "count": 65532,
      "max": [
        3.00675630569458,
        -1.4550957679748535,
        0.16130134463310242
      ],
      "min": [
        1.238440990447998,
        -3.4216599464416504,
        -0.06224357709288597
      ],
      "type": "VEC3"
    },
    {
      "bufferView": 2,
      "byteOffset": 1248816,
      "componentType": 5126,
      "count": 65532,
      "max": [
        1.0,
        0.9999906420707703,
        1.0
      ],
      "min": [
        -1.0,
        -0.9999896883964539,
        -1.0
      ],
      "type": "VEC3"
    },
    {
      "bufferView": 1,
      "byteOffset": 154144,
      "componentType": 5126,
      "count": 65532,
      "max": [
        1.0000001192092896,
        1.0000001192092896
      ],
      "min": [
        0.0,
        0.0
      ],
      "type": "VEC2"
    },
    {
      "bufferView": 0,
      "byteOffset": 462336,
      "componentType": 5125,
      "count": 374994,
      "type": "SCALAR"
    },
    {
      "bufferView": 2,
      "byteOffset": 2035200,
      "componentType": 5126,
      "count": 65532,
      "max": [
        1.429969310760498,
        -1.4550957679748535,
        0.16130134463310242
      ],
      "min": [
        -1.3078917264938354,
        -3.4216599464416504,
        -0.06224357709288597
      ],
      "type": "VEC3"
    },
    {
      "bufferView": 2,
      "byteOffset": 2821584,
      "componentType": 5126,
      "count": 65532,
      "max": [
        1.0,
        0.9999905824661255,
        1.0
      ],
      "min": [
        -1.0,
        -0.9999896883964539,
        -1.0
      ],
      "type": "VEC3"
    },
    {
      "bufferView": 1,
      "byteOffset": 678400,
      "componentType": 5126,
      "count": 65532,
      "max": [
        1.0000001192092896,
        1.0000001192092896
      ],
      "min": [
        0.0,
        0.0
      ],
      "type": "VEC2"
    },
    {
      "bufferView": 0,
      "byteOffset": 1962312,
      "componentType": 5125,
      "count": 366177,
      "type": "SCALAR"
    },
    {
      "bufferView": 2,
      "byteOffset": 3607968,
      "componentType": 5126,
      "count": 27607,
      "max": [
        -1.1225039958953857,
        -2.3466150760650635,
        0.09366302937269211
      ],
      "min": [
        -1.3096243143081665,
        -3.392651081085205,
        -0.03855836018919945
      ],
      "type": "VEC3"
    },
    {
      "bufferView": 2,
      "byteOffset": 3939252,
      "componentType": 5126,
      "count": 27607,
      "max": [
        1.0,
        0.9998417496681213,
        1.0
      ],
      "min": [
        -1.0,
        -0.9999890923500061,
        -0.9928481578826904
      ],
      "type": "VEC3"
    },
    {
      "bufferView": 1,
      "byteOffset": 1202656,
      "componentType": 5126,
      "count": 27607,
      "max": [
        0.9906543493270874,
        0.8068183064460754
      ],
      "min": [
        0.009345795027911663,
        0.04545455053448677
      ],
      "type": "VEC2"
    },
    {
      "bufferView": 0,
      "byteOffset": 3427020,
      "componentType": 5125,
      "count": 162765,
      "type": "SCALAR"
    },
    {
      "bufferView": 2,
      "byteOffset": 4270536,
      "componentType": 5126,
      "count": 9634,
      "max": [
        2.0741522312164307,
        -0.4626253843307495,
        0.5101855397224426
      ],
      "min": [
        0.5457305312156677,
        -2.4439778327941895,
        -0.5101677775382996
      ],
      "type": "VEC3"
    },
    {
      "bufferView": 2,
      "byteOffset": 4386144,
      "componentType": 5126,
      "count": 9634,
      "max": [
        0.9999533891677856,
        1.0,
        0.9999424815177917
      ],
      "min": [
        -0.9999173879623413,
        -1.0,
        -0.9999426603317261
      ],
      "type": "VEC3"
    },
    {
      "bufferView": 1,
      "byteOffset": 1423512,
      "componentType": 5126,
      "count": 9634,
      "max": [
        0.0,
        0.0
      ],
      "min": [
        0.0,
        0.0
      ],
      "type": "VEC2"
    },
    {
      "bufferView": 0,
      "byteOffset": 4078080,
      "componentType": 5125,
      "count": 57792,
      "type": "SCALAR"
    },
    {
      "bufferView": 2,
      "byteOffset": 4501752,
      "componentType": 5126,
      "count": 9634,
      "max": [
        4.0466461181640625,
        1.5846277475357056,
        0.823581337928772
      ],
      "min": [
        1.5793495178222656,
        -1.6138246059417725,
        -0.8235520720481873
      ],
      "type": "VEC3"
    },
    {
      "bufferView": 2,
      "byteOffset": 4617360,
      "componentType": 5126,
      "count": 9634,
      "max": [
        0.9999533295631409,
        1.0,
        0.9999424815177917
      ],
      "min": [
        -0.9999174475669861,
        -1.0,
        -0.9999426603317261
      ],
      "type": "VEC3"
    },
    {
      "bufferView": 1,
      "byteOffset": 1500584,
      "componentType": 5126,
      "count": 9634,
      "max": [
        0.0,
        0.0
      ],
      "min": [
        0.0,
        0.0
      ],
      "type": "VEC2"
    },
    {
      "bufferView": 0,
      "byteOffset": 4309248,
      "componentType": 5125,
      "count": 57792,
      "type": "SCALAR"
    }
  ],
  "asset": {
    "extras": {
      "author": "Akinremi (https://sketchfab.com/Akinremi)",
      "license": "CC-BY-4.0 (http://creativecommons.org/licenses/by/4.0/)",
      "source": "https://sketchfab.com/3d-models/valentines-heart-balloons-06b8de00bf1547e590d0b267d0c7fb26",
      "title": "Valentine's Heart Balloons"
    },
    "generator": "Sketchfab-15.74.0",
    "version": "2.0"
  },
  "bufferViews": [
    {
      "buffer": 0,
      "byteLength": 4540416,
      "name": "floatBufferViews",
      "target": 34963
    },
    {
      "buffer": 0,
      "byteLength": 1577656,
      "byteOffset": 4540416,
      "byteStride": 8,
      "name": "floatBufferViews",
      "target": 34962
    },
    {
      "buffer": 0,
      "byteLength": 4732968,
      "byteOffset": 6118072,
      "byteStride": 12,
      "name": "floatBufferViews",
      "target": 34962
    }
  ],
  "buffers": [
    {
      "byteLength": 10851040,
      "uri": "scene.bin"
    }
  ],
  "materials": [
    {
      "doubleSided": true,
      "name": "Material.001",
      "pbrMetallicRoughness": {
        "baseColorFactor": [
          0.8,
          0.0173568,
          0.125959,
          1.0
        ],
        "roughnessFactor": 0.1
      }
    },
    {
      "doubleSided": true,
      "name": "Material.002",
      "pbrMetallicRoughness": {
        "baseColorFactor": [
          0.975829,
          0.975829,
          0.975829,
          1.0
        ],
        "metallicFactor": 0.0,
        "roughnessFactor": 0.5
      }
    },
    {
      "doubleSided": true,
      "name": "Material.003",
      "pbrMetallicRoughness": {
        "baseColorFactor": [
          0.8,
          0.736249,
          0.10279,
          1.0
        ],
        "roughnessFactor": 0.1
      }
    },
    {
      "doubleSided": true,
      "name": "Material.005",
      "pbrMetallicRoughness": {
        "baseColorFactor": [
          0.8,
          0.334553,
          0.528011,
          1.0
        ],
        "roughnessFactor": 0.1
      }
    }
  ],
  "meshes": [
    {
      "name": "Object_0",
      "primitives": [
        {
          "attributes": {
            "NORMAL": 1,
            "POSITION": 0,
            "TEXCOORD_0": 2
          },
          "indices": 3,
          "material": 0,
          "mode": 4
        }
      ]
    },
    {
      "name": "Object_1",
      "primitives": [
        {
          "attributes": {
            "NORMAL": 5,
            "POSITION": 4,
            "TEXCOORD_0": 6
          },
          "indices": 7,
          "material": 1,
          "mode": 4
        }
      ]
    },
    {
      "name": "Object_2",
      "primitives": [
        {
          "attributes": {
            "NORMAL": 9,
            "POSITION": 8,
            "TEXCOORD_0": 10
          },
          "indices": 11,
          "material": 1,
          "mode": 4
        }
      ]
    },
    {
      "name": "Object_3",
      "primitives": [
        {
          "attributes": {
            "NORMAL": 13,
            "POSITION": 12,
            "TEXCOORD_0": 14
          },
          "indices": 15,
          "material": 1,
          "mode": 4
        }
      ]
    },
    {
      "name": "Object_4",
      "primitives": [
        {
          "attributes": {
            "NORMAL": 17,
            "POSITION": 16,
            "TEXCOORD_0": 18
          },
          "indices": 19,
          "material": 2,
          "mode": 4
        }
      ]
    },
    {
      "name": "Object_5",
      "primitives": [
        {
          "attributes": {
            "NORMAL": 21,
            "POSITION": 20,
            "TEXCOORD_0": 22
          },
          "indices": 23,
          "material": 3,
          "mode": 4
        }
      ]
    }
  ],
  "nodes": [
    {
      "children": [
        1
      ],
      "matrix": [
        1.0,
        0.0,
        0.0,
        0.0,
        0.0,
        2.220446049250313e-16,
        -1.0,
        0.0,
        0.0,
        1.0,
        2.220446049250313e-16,
        0.0,
        0.0,
        0.0,
        0.0,
        1.0
      ],
      "name": "Sketchfab_model"
    },
    {
      "children": [
        2
      ],
      "name": "root"
    },
    {
      "children": [
        3
      ],
      "matrix": [
        1.0,
        0.0,
        0.0,
        0.0,
        0.0,
        2.220446049250313e-16,
        1.0,
        0.0,
        0.0,
        -1.0,
        2.220446049250313e-16,
        0.0,
        0.0,
        0.0,
        0.0,
        1.0
      ],
      "name": "GLTF_SceneRootNode"
    },
    {
      "children": [
        4,
        5,
        6,
        7,
        8,
        9
      ],
      "matrix": [
        1.0,
        0.0,
        0.0,
        0.0,
        0.0,
        1.0,
        0.0,
        0.0,
        0.0,
        0.0,
        1.0,
        0.0,
        0.0,
        3.453240156173706,
        0.0,
        1.0
      ],
      "name": "Circle_1"
    },
    {
      "mesh": 0,
      "name": "Object_4"
    },
    {
      "mesh": 1,
      "name": "Object_5"
    },
    {
      "mesh": 2,
      "name": "Object_6"
    },
    {
      "mesh": 3,
      "name": "Object_7"
    },
    {
      "mesh": 4,
      "name": "Object_8"
    },
    {
      "mesh": 5,
      "name": "Object_9"
    }
  ],
  "scene": 0,
  "scenes": [
    {
      "name": "Sketchfab_Scene",
      "nodes": [
        0
      ]
    }
  ]
}
